<svg width="556" height="556" viewBox="0 0 556 556" fill="none" xmlns="http://www.w3.org/2000/svg">
<path d="M555.98 488.042H0V488.414H555.98V488.042Z" fill="#FAFAFA"/>
<path d="M470.604 504.26H442.994V504.633H470.604V504.26Z" fill="#E0E0E0"/>
<path d="M488.095 504.066H478.766V504.439H488.095V504.066Z" fill="#E0E0E0"/>
<path d="M369.204 506.571H311.393V506.943H369.204V506.571Z" fill="#E0E0E0"/>
<path d="M297.75 510.61H289.132V510.983H297.75V510.61Z" fill="#E0E0E0"/>
<path d="M124.484 498.819H109.628V499.192H124.484V498.819Z" fill="#E0E0E0"/>
<path d="M206.002 498.819H130.655V499.192H206.002V498.819Z" fill="#E0E0E0"/>
<path d="M141.775 507.823H89.3569V508.196H141.775V507.823Z" fill="#E0E0E0"/>
<path d="M263.535 421.558H48.8262C47.1442 421.554 45.5321 420.656 44.3438 419.06C43.1555 417.464 42.488 415.302 42.488 413.047V8.43713C42.5027 6.19522 43.1766 4.05158 44.3633 2.47184C45.55 0.892097 47.1538 0.00384052 48.8262 0H263.535C265.219 0 266.833 0.896762 268.024 2.49301C269.215 4.08926 269.884 6.25423 269.884 8.51166V413.047C269.884 415.304 269.215 417.469 268.024 419.065C266.833 420.662 265.219 421.558 263.535 421.558ZM48.8262 0.298133C47.2179 0.302082 45.6765 1.16132 44.5403 2.68725C43.4042 4.21318 42.766 6.28111 42.766 8.43713V413.047C42.766 415.203 43.4042 417.271 44.5403 418.797C45.6765 420.323 47.2179 421.182 48.8262 421.186H263.535C265.144 421.182 266.686 420.323 267.824 418.798C268.962 417.272 269.603 415.204 269.606 413.047V8.43713C269.603 6.27974 268.962 4.21185 267.824 2.68634C266.686 1.16084 265.144 0.302073 263.535 0.298133H48.8262Z" fill="#E0E0E0"/>
<path d="M504.062 421.558H289.343C287.66 421.554 286.047 420.656 284.857 419.061C283.666 417.466 282.997 415.303 282.994 413.047V8.43713C283.011 6.19386 283.688 4.05024 284.876 2.47091C286.065 0.891576 287.669 0.00379863 289.343 0H504.062C505.733 0.00775813 507.334 0.897748 508.518 2.47707C509.702 4.05639 510.375 6.19779 510.389 8.43713V413.047C510.389 415.299 509.724 417.459 508.538 419.055C507.352 420.65 505.742 421.551 504.062 421.558ZM289.343 0.298133C287.734 0.302073 286.191 1.16084 285.053 2.68634C283.915 4.21185 283.275 6.27974 283.272 8.43713V413.047C283.275 415.204 283.915 417.272 285.053 418.798C286.191 420.323 287.734 421.182 289.343 421.186H504.062C505.672 421.182 507.214 420.323 508.352 418.798C509.49 417.272 510.131 415.204 510.134 413.047V8.43713C510.131 6.27974 509.49 4.21185 508.352 2.68634C507.214 1.16084 505.672 0.302073 504.062 0.298133H289.343Z" fill="#E0E0E0"/>
<path d="M380.012 488.042H419.298V392.461H380.012V488.042Z" fill="#E0E0E0"/>
<path d="M466.167 392.461H419.298V488.042H466.167V392.461Z" fill="#EBEBEB"/>
<g style="mix-blend-mode:multiply" opacity="0.7">
<path d="M380.013 404.878H466.579V400.555H380.013V404.878Z" fill="#E0E0E0"/>
</g>
<path d="M377.844 402.359H419.298V382.444H377.844V402.359Z" fill="#E0E0E0"/>
<path d="M468.335 382.458H419.298V402.374H468.335V382.458Z" fill="#EBEBEB"/>
<path d="M215.787 28.3076H83.5415V239.832H215.787V28.3076Z" fill="#E0E0E0"/>
<path d="M221.847 28.3076H86.377V239.832H221.847V28.3076Z" fill="#EBEBEB"/>
<path d="M215.787 239.832H83.5415V254.903H215.787V239.832Z" fill="#E0E0E0"/>
<path d="M231.921 239.832H96.4512V254.903H231.921V239.832Z" fill="#EBEBEB"/>
<path d="M213.374 228.473V39.6664L94.8502 39.6664L94.8502 228.473H213.374Z" fill="#F5F5F5"/>
<path d="M109.395 228.473L159.11 39.6664H182.573L132.868 228.473H109.395Z" fill="#FAFAFA"/>
<path d="M98.764 164.42C98.6038 164.416 98.4511 164.328 98.3388 164.174C98.2265 164.021 98.1635 163.815 98.1636 163.6V47.0452C98.1636 46.8317 98.2268 46.627 98.3394 46.476C98.4521 46.325 98.6048 46.2402 98.764 46.2402C98.9243 46.2402 99.0782 46.3245 99.1926 46.4751C99.307 46.6256 99.3727 46.8303 99.3756 47.0452V163.6C99.3756 163.817 99.3112 164.026 99.1965 164.18C99.0818 164.333 98.9262 164.42 98.764 164.42Z" fill="#EBEBEB"/>
<path d="M137.905 228.473L187.621 39.6664H196.772L147.057 228.473H137.905Z" fill="#FAFAFA"/>
<path d="M213.363 228.473V39.6664H212.284V228.473H213.363Z" fill="#E0E0E0"/>
<path d="M223.837 54.1854H91.6031L90.8247 44.0788H223.059L223.837 54.1854Z" fill="#E0E0E0"/>
<path d="M223.837 61.5941H91.6031L90.8247 51.4725H223.059L223.837 61.5941Z" fill="#E0E0E0"/>
<path d="M223.837 70.4784H91.6031L90.8247 60.3568H223.059L223.837 70.4784Z" fill="#E0E0E0"/>
<path d="M223.837 80.3614H91.6031L90.8247 70.2548H223.059L223.837 80.3614Z" fill="#E0E0E0"/>
<path d="M223.837 92.2122H91.6031L90.8247 82.0906H223.059L223.837 92.2122Z" fill="#E0E0E0"/>
<path d="M223.837 105.524H91.6031L90.8247 95.4171H223.059L223.837 105.524Z" fill="#E0E0E0"/>
<path d="M456.304 28.3076H324.059V239.832H456.304V28.3076Z" fill="#E0E0E0"/>
<path d="M462.353 28.3076H326.883V239.832H462.353V28.3076Z" fill="#EBEBEB"/>
<path d="M456.304 239.832H324.059V254.903H456.304V239.832Z" fill="#E0E0E0"/>
<path d="M472.438 239.832H336.968V254.903H472.438V239.832Z" fill="#EBEBEB"/>
<path d="M453.891 228.473V39.6664L335.367 39.6664V228.473H453.891Z" fill="#F5F5F5"/>
<path d="M349.912 228.473L399.627 39.6664H423.09L373.374 228.473H349.912Z" fill="#FAFAFA"/>
<path d="M339.281 164.42C339.121 164.416 338.968 164.328 338.856 164.174C338.744 164.021 338.681 163.815 338.681 163.6V47.0452C338.681 46.8317 338.744 46.627 338.857 46.476C338.969 46.325 339.122 46.2402 339.281 46.2402C339.44 46.2402 339.593 46.325 339.706 46.476C339.818 46.627 339.882 46.8317 339.882 47.0452V163.6C339.882 163.815 339.819 164.021 339.706 164.174C339.594 164.328 339.441 164.416 339.281 164.42Z" fill="#EBEBEB"/>
<path d="M378.422 228.473L428.138 39.6664H437.278L387.574 228.473H378.422Z" fill="#FAFAFA"/>
<path d="M453.88 228.473V39.6664H452.801V228.473H453.88Z" fill="#E0E0E0"/>
<path d="M464.354 54.1854H332.12L331.331 44.0788H463.576L464.354 54.1854Z" fill="#E0E0E0"/>
<path d="M464.354 61.5941H332.12L331.331 51.4725H463.576L464.354 61.5941Z" fill="#E0E0E0"/>
<path d="M464.354 70.4784H332.12L331.331 60.3568H463.576L464.354 70.4784Z" fill="#E0E0E0"/>
<path d="M464.354 80.3614H332.12L331.331 70.2548H463.576L464.354 80.3614Z" fill="#E0E0E0"/>
<path d="M464.354 92.2122H332.12L331.331 82.0906H463.576L464.354 92.2122Z" fill="#E0E0E0"/>
<path d="M464.354 105.524H332.12L331.331 95.4171H463.576L464.354 105.524Z" fill="#E0E0E0"/>
<path d="M353.648 353.972H327.239V488.042H353.648V353.972Z" fill="#E0E0E0"/>
<path d="M348.622 488.042H353.637V471.615H343.362L348.622 488.042Z" fill="#F5F5F5"/>
<path d="M97.3631 353.972H70.9541V488.042H97.3631V353.972Z" fill="#E0E0E0"/>
<path d="M353.648 353.972H92.9819V479.008H353.648V353.972Z" fill="#F5F5F5"/>
<path d="M224.994 360.233V449.523H349.756V360.233H224.994Z" fill="#E0E0E0"/>
<path d="M96.874 360.233V449.523H221.636V360.233H96.874Z" fill="#E0E0E0"/>
<path d="M349.745 468.395V458.452H224.983V468.395H349.745Z" fill="#E0E0E0"/>
<path d="M221.625 468.41V458.467H96.8626V468.41H221.625Z" fill="#E0E0E0"/>
<path d="M203.188 365.569H115.344C113.393 365.571 111.463 365.044 109.668 364.019C107.874 362.994 106.253 361.493 104.902 359.607H213.674C212.319 361.501 210.69 363.006 208.888 364.031C207.085 365.056 205.146 365.579 203.188 365.569Z" fill="#F5F5F5"/>
<path d="M331.775 365.569H243.931C241.98 365.571 240.05 365.044 238.255 364.019C236.461 362.994 234.84 361.493 233.489 359.607H342.261C340.908 361.505 339.28 363.013 337.477 364.038C335.674 365.063 333.734 365.584 331.775 365.569Z" fill="#F5F5F5"/>
<path d="M97.9968 488.042H92.9707V471.615H103.245L97.9968 488.042Z" fill="#F5F5F5"/>
<g style="mix-blend-mode:multiply" opacity="0.4">
<path d="M284.173 271.658H254.772V353.972H284.173V271.658Z" fill="#E0E0E0"/>
</g>
<path d="M308.869 353.972H259.109L254.428 265.084H304.177L308.869 353.972Z" fill="#E0E0E0"/>
<path d="M314.529 353.972H260.521L255.84 265.084H309.837L314.529 353.972Z" fill="#F5F5F5"/>
<path d="M263.023 350.573L258.697 268.483H307.346L311.682 350.573H263.023Z" fill="#FAFAFA"/>
<path d="M274.798 332.193L272.408 286.862H295.57L297.961 332.193H274.798Z" fill="#F5F5F5"/>
<path d="M177.191 339.378C184.327 339.378 190.112 331.623 190.112 322.057C190.112 312.491 184.327 304.735 177.191 304.735C170.055 304.735 164.27 312.491 164.27 322.057C164.27 331.623 170.055 339.378 177.191 339.378Z" fill="#EBEBEB"/>
<path d="M199.319 347.637C206.455 347.637 212.24 339.882 212.24 330.315C212.24 320.749 206.455 312.994 199.319 312.994C192.183 312.994 186.398 320.749 186.398 330.315C186.398 339.882 192.183 347.637 199.319 347.637Z" fill="#EBEBEB"/>
<path d="M221.306 333.765C225.706 331.335 227.804 324.582 225.991 318.683C224.178 312.784 219.141 309.971 214.74 312.402C210.34 314.832 208.242 321.585 210.055 327.484C211.868 333.383 216.905 336.195 221.306 333.765Z" fill="#EBEBEB"/>
<path d="M198.641 313.437C199.402 307.138 196.211 301.206 191.512 300.186C186.814 299.165 182.389 303.444 181.628 309.743C180.867 316.041 184.059 321.973 188.757 322.994C193.455 324.014 197.881 319.735 198.641 313.437Z" fill="#EBEBEB"/>
<path d="M156.531 327.215C156.531 327.215 157.543 353.972 196.317 353.972C235.091 353.972 236.103 327.215 236.103 327.215H156.531Z" fill="#E0E0E0"/>
<path d="M120.725 344.804C120.725 344.804 108.094 315.617 125.618 292.378C125.618 292.378 130.188 296.373 130.066 301.754C129.944 307.135 125.162 308.477 126.196 312.964C127.23 317.451 131.756 321.908 128.809 325.56C125.863 329.212 129.288 332.551 129.087 337.098C128.887 341.644 120.725 344.804 120.725 344.804Z" fill="#E0E0E0"/>
<path d="M121.682 347.473C121.682 347.473 126.797 314.44 104.702 299.772C104.702 299.772 101.3 305.511 102.634 310.579C103.968 315.647 108.861 314.887 108.939 319.523C109.017 324.159 105.714 330.315 109.428 332.566C113.142 334.817 110.618 339.423 111.874 343.642C113.131 347.86 121.682 347.473 121.682 347.473Z" fill="#E0E0E0"/>
<path d="M102.3 332.193C102.3 332.193 102.723 353.972 118.824 353.972C134.925 353.972 135.348 332.193 135.348 332.193H102.3Z" fill="#EBEBEB"/>
<path d="M277.99 555.36C397.061 555.36 493.588 547.805 493.588 538.486C493.588 529.166 397.061 521.612 277.99 521.612C158.919 521.612 62.3921 529.166 62.3921 538.486C62.3921 547.805 158.919 555.36 277.99 555.36Z" fill="#F5F5F5"/>
<path d="M200.653 324.129C199.994 324.071 199.376 323.679 198.924 323.033C198.473 322.386 198.221 321.534 198.221 320.648C198.221 319.763 198.473 318.91 198.924 318.264C199.376 317.617 199.994 317.225 200.653 317.168C207.014 317.168 212.373 304.959 212.373 290.5C212.416 289.616 212.709 288.787 213.191 288.182C213.673 287.576 214.309 287.239 214.97 287.239C215.63 287.239 216.266 287.576 216.748 288.182C217.231 288.787 217.523 289.616 217.566 290.5C217.566 309.357 210.16 324.129 200.653 324.129Z" fill="#7671FF"/>
<path d="M239.894 324.129C239.235 324.071 238.617 323.679 238.165 323.033C237.714 322.386 237.462 321.534 237.462 320.648C237.462 319.763 237.714 318.91 238.165 318.264C238.617 317.617 239.235 317.225 239.894 317.168C246.255 317.168 251.614 304.959 251.614 290.5C251.658 289.616 251.95 288.787 252.432 288.182C252.914 287.576 253.55 287.239 254.211 287.239C254.872 287.239 255.507 287.576 255.99 288.182C256.472 288.787 256.764 289.616 256.807 290.5C256.863 309.357 249.379 324.129 239.894 324.129Z" fill="#7671FF"/>
<path d="M279.102 324.129C278.443 324.071 277.825 323.679 277.373 323.033C276.921 322.386 276.67 321.534 276.67 320.648C276.67 319.763 276.921 318.91 277.373 318.264C277.825 317.617 278.443 317.225 279.102 317.168C285.451 317.168 290.822 304.959 290.822 290.5C290.822 289.579 291.095 288.695 291.581 288.044C292.067 287.392 292.726 287.026 293.413 287.026C294.1 287.026 294.759 287.392 295.245 288.044C295.731 288.695 296.004 289.579 296.004 290.5C296.037 309.357 288.62 324.129 279.102 324.129Z" fill="#7671FF"/>
<path d="M318.376 324.129C318.021 324.16 317.665 324.093 317.33 323.932C316.995 323.772 316.688 323.52 316.428 323.194C316.168 322.868 315.961 322.474 315.819 322.036C315.678 321.598 315.604 321.126 315.604 320.648C315.604 320.171 315.678 319.699 315.819 319.261C315.961 318.823 316.168 318.429 316.428 318.102C316.688 317.776 316.995 317.525 317.33 317.364C317.665 317.203 318.021 317.136 318.376 317.168C324.726 317.168 330.097 304.959 330.097 290.5C330.097 289.579 330.37 288.695 330.855 288.044C331.341 287.392 332 287.026 332.687 287.026C333.375 287.026 334.034 287.392 334.519 288.044C335.005 288.695 335.278 289.579 335.278 290.5C335.278 309.357 327.85 324.129 318.376 324.129Z" fill="#7671FF"/>
<path d="M357.606 324.129C356.947 324.071 356.329 323.679 355.877 323.033C355.426 322.386 355.174 321.534 355.174 320.648C355.174 319.763 355.426 318.91 355.877 318.264C356.329 317.617 356.947 317.225 357.606 317.168C363.967 317.168 369.326 304.959 369.326 290.5C369.37 289.616 369.662 288.787 370.144 288.182C370.626 287.576 371.262 287.239 371.923 287.239C372.583 287.239 373.219 287.576 373.702 288.182C374.184 288.787 374.476 289.616 374.519 290.5C374.519 309.357 367.091 324.129 357.606 324.129Z" fill="#7671FF"/>
<path d="M396.848 324.129C396.188 324.071 395.57 323.679 395.118 323.033C394.667 322.386 394.416 321.534 394.416 320.648C394.416 319.763 394.667 318.91 395.118 318.264C395.57 317.617 396.188 317.225 396.848 317.168C403.197 317.168 408.568 304.959 408.568 290.5C408.611 289.616 408.903 288.787 409.385 288.182C409.867 287.576 410.503 287.239 411.164 287.239C411.825 287.239 412.461 287.576 412.943 288.182C413.425 288.787 413.717 289.616 413.76 290.5C413.76 309.357 406.333 324.129 396.848 324.129Z" fill="#7671FF"/>
<g opacity="0.3">
<path d="M200.653 324.129C199.994 324.071 199.376 323.679 198.924 323.033C198.473 322.386 198.221 321.534 198.221 320.648C198.221 319.763 198.473 318.91 198.924 318.264C199.376 317.617 199.994 317.225 200.653 317.168C207.014 317.168 212.373 304.959 212.373 290.5C212.416 289.616 212.709 288.787 213.191 288.182C213.673 287.576 214.309 287.239 214.97 287.239C215.63 287.239 216.266 287.576 216.748 288.182C217.231 288.787 217.523 289.616 217.566 290.5C217.566 309.357 210.16 324.129 200.653 324.129Z" fill="black"/>
<path d="M239.894 324.129C239.235 324.071 238.617 323.679 238.165 323.033C237.714 322.386 237.462 321.534 237.462 320.648C237.462 319.763 237.714 318.91 238.165 318.264C238.617 317.617 239.235 317.225 239.894 317.168C246.255 317.168 251.614 304.959 251.614 290.5C251.658 289.616 251.95 288.787 252.432 288.182C252.914 287.576 253.55 287.239 254.211 287.239C254.872 287.239 255.507 287.576 255.99 288.182C256.472 288.787 256.764 289.616 256.807 290.5C256.863 309.357 249.379 324.129 239.894 324.129Z" fill="black"/>
<path d="M279.102 324.129C278.443 324.071 277.825 323.679 277.373 323.033C276.921 322.386 276.67 321.534 276.67 320.648C276.67 319.763 276.921 318.91 277.373 318.264C277.825 317.617 278.443 317.225 279.102 317.168C285.451 317.168 290.822 304.959 290.822 290.5C290.822 289.579 291.095 288.695 291.581 288.044C292.067 287.392 292.726 287.026 293.413 287.026C294.1 287.026 294.759 287.392 295.245 288.044C295.731 288.695 296.004 289.579 296.004 290.5C296.037 309.357 288.62 324.129 279.102 324.129Z" fill="black"/>
<path d="M318.376 324.129C318.021 324.16 317.665 324.093 317.33 323.932C316.995 323.772 316.688 323.52 316.428 323.194C316.168 322.868 315.961 322.474 315.819 322.036C315.678 321.598 315.604 321.126 315.604 320.648C315.604 320.171 315.678 319.699 315.819 319.261C315.961 318.823 316.168 318.429 316.428 318.102C316.688 317.776 316.995 317.525 317.33 317.364C317.665 317.203 318.021 317.136 318.376 317.168C324.726 317.168 330.097 304.959 330.097 290.5C330.097 289.579 330.37 288.695 330.855 288.044C331.341 287.392 332 287.026 332.687 287.026C333.375 287.026 334.034 287.392 334.519 288.044C335.005 288.695 335.278 289.579 335.278 290.5C335.278 309.357 327.85 324.129 318.376 324.129Z" fill="black"/>
<path d="M357.606 324.129C356.947 324.071 356.329 323.679 355.877 323.033C355.426 322.386 355.174 321.534 355.174 320.648C355.174 319.763 355.426 318.91 355.877 318.264C356.329 317.617 356.947 317.225 357.606 317.168C363.967 317.168 369.326 304.959 369.326 290.5C369.37 289.616 369.662 288.787 370.144 288.182C370.626 287.576 371.262 287.239 371.923 287.239C372.583 287.239 373.219 287.576 373.702 288.182C374.184 288.787 374.476 289.616 374.519 290.5C374.519 309.357 367.091 324.129 357.606 324.129Z" fill="black"/>
<path d="M396.848 324.129C396.188 324.071 395.57 323.679 395.118 323.033C394.667 322.386 394.416 321.534 394.416 320.648C394.416 319.763 394.667 318.91 395.118 318.264C395.57 317.617 396.188 317.225 396.848 317.168C403.197 317.168 408.568 304.959 408.568 290.5C408.611 289.616 408.903 288.787 409.385 288.182C409.867 287.576 410.503 287.239 411.164 287.239C411.825 287.239 412.461 287.576 412.943 288.182C413.425 288.787 413.717 289.616 413.76 290.5C413.76 309.357 406.333 324.129 396.848 324.129Z" fill="black"/>
</g>
<path d="M176.068 294.062H428.683C432.07 294.153 435.316 295.898 437.811 298.969C440.307 302.04 441.881 306.227 442.238 310.743L456.226 522.163C456.396 524.284 456.229 526.43 455.734 528.458C455.239 530.486 454.429 532.35 453.357 533.927C452.285 535.504 450.975 536.757 449.514 537.605C448.054 538.453 446.476 538.875 444.884 538.844H192.258C188.872 538.746 185.629 536.999 183.135 533.929C180.64 530.86 179.065 526.677 178.703 522.163L164.726 310.743C164.554 308.621 164.72 306.474 165.214 304.445C165.708 302.416 166.518 300.551 167.591 298.974C168.663 297.396 169.974 296.143 171.435 295.296C172.897 294.449 174.476 294.029 176.068 294.062Z" fill="#7671FF"/>
<path opacity="0.4" d="M176.068 294.062H428.683C432.07 294.153 435.316 295.898 437.811 298.969C440.307 302.04 441.881 306.227 442.238 310.743L456.226 522.163C456.396 524.284 456.229 526.43 455.734 528.458C455.239 530.486 454.429 532.35 453.357 533.927C452.285 535.504 450.975 536.757 449.514 537.605C448.054 538.453 446.476 538.875 444.884 538.844H192.258C188.872 538.746 185.629 536.999 183.135 533.929C180.64 530.86 179.065 526.677 178.703 522.163L164.726 310.743C164.554 308.621 164.72 306.474 165.214 304.445C165.708 302.416 166.518 300.551 167.591 298.974C168.663 297.396 169.974 296.143 171.435 295.296C172.897 294.449 174.476 294.029 176.068 294.062Z" fill="#FAFAFA"/>
<path d="M426.581 294.062H173.955C170.613 294.116 167.412 295.868 164.997 298.964C162.582 302.06 161.134 306.27 160.945 310.743L153.828 522.163C153.744 524.317 153.988 526.471 154.546 528.494C155.104 530.517 155.964 532.366 157.074 533.928C158.184 535.489 159.519 536.731 161 537.576C162.48 538.421 164.073 538.853 165.682 538.844H418.33C421.672 538.79 424.874 537.038 427.289 533.942C429.704 530.846 431.152 526.636 431.34 522.163L438.468 310.743C438.551 308.586 438.305 306.429 437.744 304.404C437.184 302.379 436.32 300.529 435.207 298.967C434.094 297.405 432.755 296.164 431.272 295.321C429.789 294.478 428.192 294.049 426.581 294.062Z" fill="#7671FF"/>
<path opacity="0.2" d="M426.581 294.062H173.955C170.613 294.116 167.412 295.868 164.997 298.964C162.582 302.06 161.134 306.27 160.945 310.743L153.828 522.163C153.744 524.317 153.988 526.471 154.546 528.494C155.104 530.517 155.964 532.366 157.074 533.928C158.184 535.489 159.519 536.731 161 537.576C162.48 538.421 164.073 538.853 165.682 538.844H418.33C421.672 538.79 424.874 537.038 427.289 533.942C429.704 530.846 431.152 526.636 431.34 522.163L438.468 310.743C438.551 308.586 438.305 306.429 437.744 304.404C437.184 302.379 436.32 300.529 435.207 298.967C434.094 297.405 432.755 296.164 431.272 295.321C429.789 294.478 428.192 294.049 426.581 294.062Z" fill="#FAFAFA"/>
<path d="M178.592 482.974L184.474 308.373C184.545 306.66 185.099 305.047 186.024 303.862C186.949 302.678 188.176 302.009 189.456 301.993H410.547C411.163 301.988 411.774 302.151 412.341 302.474C412.909 302.796 413.421 303.271 413.847 303.868C414.273 304.465 414.603 305.173 414.818 305.948C415.032 306.722 415.127 307.548 415.095 308.373L409.201 482.974C409.131 484.686 408.577 486.299 407.651 487.484C406.726 488.669 405.499 489.337 404.22 489.354H183.14C182.524 489.359 181.913 489.195 181.345 488.873C180.778 488.55 180.266 488.076 179.84 487.478C179.414 486.881 179.084 486.173 178.869 485.399C178.654 484.624 178.56 483.799 178.592 482.974Z" fill="#7671FF"/>
<path opacity="0.1" d="M178.592 482.974L184.474 308.373C184.545 306.66 185.099 305.047 186.024 303.862C186.949 302.678 188.176 302.009 189.456 301.993H410.547C411.163 301.988 411.774 302.151 412.341 302.474C412.909 302.796 413.421 303.271 413.847 303.868C414.273 304.465 414.603 305.173 414.818 305.948C415.032 306.722 415.127 307.548 415.095 308.373L409.201 482.974C409.131 484.686 408.577 486.299 407.651 487.484C406.726 488.669 405.499 489.337 404.22 489.354H183.14C182.524 489.359 181.913 489.195 181.345 488.873C180.778 488.55 180.266 488.076 179.84 487.478C179.414 486.881 179.084 486.173 178.869 485.399C178.654 484.624 178.56 483.799 178.592 482.974Z" fill="#FAFAFA"/>
<path opacity="0.1" d="M172.354 497.224L178.525 313.873C178.596 312.075 179.176 310.381 180.148 309.137C181.119 307.893 182.408 307.193 183.751 307.18H415.929C416.576 307.173 417.217 307.343 417.813 307.681C418.409 308.018 418.947 308.516 419.394 309.143C419.841 309.77 420.187 310.514 420.412 311.327C420.636 312.141 420.734 313.007 420.699 313.873L414.517 497.224C414.446 499.021 413.868 500.715 412.899 501.961C411.93 503.207 410.644 503.912 409.301 503.932H177.102C176.455 503.938 175.815 503.766 175.22 503.426C174.625 503.086 174.088 502.587 173.643 501.958C173.198 501.329 172.854 500.585 172.632 499.77C172.411 498.956 172.316 498.09 172.354 497.224Z" fill="black"/>
<path d="M166.616 512.012L173.055 320.76C173.141 318.89 173.75 317.132 174.759 315.837C175.769 314.541 177.106 313.803 178.503 313.769H420.699C421.375 313.761 422.044 313.94 422.667 314.292C423.289 314.645 423.851 315.165 424.318 315.82C424.785 316.475 425.146 317.251 425.381 318.101C425.615 318.951 425.717 319.856 425.681 320.76L419.209 512.012C419.123 513.882 418.514 515.64 417.504 516.935C416.495 518.231 415.158 518.969 413.76 519.003H171.598C170.922 519.012 170.251 518.836 169.628 518.484C169.005 518.132 168.443 517.612 167.975 516.956C167.508 516.301 167.147 515.524 166.913 514.673C166.679 513.823 166.578 512.917 166.616 512.012Z" fill="#FAFAFA"/>
<path d="M396.814 325.232C396.359 325.233 395.908 325.109 395.489 324.868C395.071 324.627 394.694 324.273 394.382 323.829C394.069 323.385 393.828 322.86 393.672 322.286C393.517 321.712 393.451 321.101 393.478 320.492C393.521 319.296 393.902 318.167 394.545 317.336C395.188 316.504 396.043 316.034 396.936 316.02C397.392 316.019 397.843 316.143 398.261 316.384C398.679 316.625 399.056 316.979 399.369 317.423C399.681 317.867 399.923 318.392 400.078 318.966C400.234 319.54 400.3 320.151 400.272 320.76C400.23 321.956 399.848 323.085 399.205 323.916C398.563 324.748 397.707 325.218 396.814 325.232Z" fill="#7671FF"/>
<path d="M357.573 325.232C357.117 325.233 356.667 325.109 356.248 324.868C355.83 324.627 355.453 324.273 355.14 323.829C354.828 323.385 354.586 322.86 354.431 322.286C354.276 321.712 354.21 321.101 354.237 320.492C354.279 319.296 354.661 318.167 355.304 317.336C355.947 316.504 356.802 316.034 357.695 316.02C358.151 316.019 358.601 316.143 359.02 316.384C359.438 316.625 359.815 316.979 360.128 317.423C360.44 317.867 360.682 318.392 360.837 318.966C360.992 319.54 361.058 320.151 361.031 320.76C360.991 321.957 360.61 323.088 359.967 323.92C359.324 324.752 358.467 325.222 357.573 325.232Z" fill="#7671FF"/>
<path d="M318.332 325.232C317.877 325.233 317.426 325.109 317.008 324.868C316.589 324.627 316.212 324.273 315.9 323.829C315.587 323.385 315.346 322.86 315.19 322.286C315.035 321.712 314.969 321.101 314.996 320.492C315.041 319.297 315.424 318.17 316.066 317.34C316.708 316.509 317.562 316.037 318.454 316.02C318.91 316.019 319.361 316.143 319.779 316.384C320.197 316.625 320.574 316.979 320.887 317.423C321.199 317.867 321.441 318.392 321.596 318.966C321.752 319.54 321.818 320.151 321.79 320.76C321.751 321.957 321.37 323.088 320.726 323.92C320.083 324.752 319.226 325.222 318.332 325.232Z" fill="#7671FF"/>
<path d="M279.102 325.232C278.647 325.233 278.196 325.109 277.778 324.868C277.359 324.627 276.982 324.273 276.67 323.829C276.357 323.385 276.116 322.86 275.96 322.286C275.805 321.712 275.739 321.101 275.766 320.492C275.814 319.296 276.199 318.169 276.843 317.338C277.487 316.508 278.342 316.037 279.236 316.02C279.691 316.019 280.142 316.143 280.56 316.384C280.979 316.625 281.356 316.979 281.668 317.423C281.981 317.867 282.222 318.392 282.377 318.966C282.533 319.54 282.599 320.151 282.571 320.76C282.532 321.96 282.149 323.093 281.503 323.925C280.858 324.758 279.998 325.226 279.102 325.232Z" fill="#7671FF"/>
<path d="M239.861 325.232C239.405 325.233 238.955 325.109 238.536 324.868C238.118 324.627 237.741 324.273 237.428 323.829C237.116 323.385 236.875 322.86 236.719 322.286C236.564 321.712 236.498 321.101 236.525 320.492C236.568 319.296 236.949 318.167 237.592 317.336C238.235 316.504 239.09 316.034 239.983 316.02C240.439 316.019 240.889 316.143 241.308 316.384C241.726 316.625 242.103 316.979 242.416 317.423C242.728 317.867 242.97 318.392 243.125 318.966C243.28 319.54 243.346 320.151 243.319 320.76C243.277 321.956 242.895 323.085 242.252 323.916C241.609 324.748 240.754 325.218 239.861 325.232Z" fill="#7671FF"/>
<path d="M200.62 325.232C200.164 325.233 199.713 325.109 199.295 324.868C198.877 324.627 198.5 324.273 198.187 323.829C197.875 323.385 197.633 322.86 197.478 322.286C197.323 321.712 197.257 321.101 197.284 320.492C197.326 319.296 197.708 318.167 198.351 317.336C198.994 316.504 199.849 316.034 200.742 316.02C201.197 316.019 201.648 316.143 202.067 316.384C202.485 316.625 202.862 316.979 203.175 317.423C203.487 317.867 203.728 318.392 203.884 318.966C204.039 319.54 204.105 320.151 204.078 320.76C204.038 321.957 203.657 323.088 203.014 323.92C202.371 324.752 201.514 325.222 200.62 325.232Z" fill="#7671FF"/>
<g opacity="0.1">
<path d="M396.814 325.232C396.359 325.233 395.908 325.109 395.489 324.868C395.071 324.627 394.694 324.273 394.382 323.829C394.069 323.385 393.828 322.86 393.672 322.286C393.517 321.712 393.451 321.101 393.478 320.492C393.521 319.296 393.902 318.167 394.545 317.336C395.188 316.504 396.043 316.034 396.936 316.02C397.392 316.019 397.843 316.143 398.261 316.384C398.679 316.625 399.056 316.979 399.369 317.423C399.681 317.867 399.923 318.392 400.078 318.966C400.234 319.54 400.3 320.151 400.272 320.76C400.23 321.956 399.848 323.085 399.205 323.916C398.563 324.748 397.707 325.218 396.814 325.232Z" fill="#FAFAFA"/>
<path d="M357.573 325.232C357.118 325.233 356.667 325.109 356.249 324.868C355.83 324.627 355.453 324.273 355.141 323.829C354.828 323.385 354.587 322.86 354.431 322.286C354.276 321.712 354.21 321.101 354.237 320.492C354.28 319.296 354.661 318.167 355.304 317.336C355.947 316.504 356.802 316.034 357.695 316.02C358.151 316.019 358.602 316.143 359.02 316.384C359.438 316.625 359.815 316.979 360.128 317.423C360.44 317.867 360.682 318.392 360.837 318.966C360.993 319.54 361.059 320.151 361.031 320.76C360.991 321.957 360.611 323.088 359.967 323.92C359.324 324.752 358.467 325.222 357.573 325.232Z" fill="#FAFAFA"/>
<path d="M318.332 325.232C317.876 325.233 317.426 325.109 317.007 324.868C316.589 324.627 316.212 324.273 315.899 323.829C315.587 323.385 315.345 322.86 315.19 322.286C315.035 321.712 314.969 321.101 314.996 320.492C315.041 319.297 315.424 318.17 316.066 317.34C316.708 316.509 317.562 316.037 318.454 316.02C318.91 316.019 319.36 316.143 319.779 316.384C320.197 316.625 320.574 316.979 320.887 317.423C321.199 317.867 321.441 318.392 321.596 318.966C321.751 319.54 321.817 320.151 321.79 320.76C321.75 321.957 321.369 323.088 320.726 323.92C320.083 324.752 319.226 325.222 318.332 325.232Z" fill="#FAFAFA"/>
<path d="M279.102 325.232C278.647 325.233 278.196 325.109 277.778 324.868C277.359 324.627 276.982 324.273 276.67 323.829C276.357 323.385 276.116 322.86 275.96 322.286C275.805 321.712 275.739 321.101 275.766 320.492C275.814 319.296 276.199 318.169 276.843 317.338C277.487 316.508 278.342 316.037 279.236 316.02C279.691 316.019 280.142 316.143 280.56 316.384C280.979 316.625 281.356 316.979 281.668 317.423C281.981 317.867 282.222 318.392 282.377 318.966C282.533 319.54 282.599 320.151 282.571 320.76C282.532 321.96 282.149 323.093 281.503 323.925C280.858 324.758 279.998 325.226 279.102 325.232Z" fill="#FAFAFA"/>
<path d="M239.861 325.232C239.405 325.233 238.955 325.109 238.536 324.868C238.118 324.627 237.741 324.273 237.428 323.829C237.116 323.385 236.875 322.86 236.719 322.286C236.564 321.712 236.498 321.101 236.525 320.492C236.568 319.296 236.949 318.167 237.592 317.336C238.235 316.504 239.09 316.034 239.983 316.02C240.439 316.019 240.889 316.143 241.308 316.384C241.726 316.625 242.103 316.979 242.416 317.423C242.728 317.867 242.97 318.392 243.125 318.966C243.28 319.54 243.346 320.151 243.319 320.76C243.277 321.956 242.895 323.085 242.252 323.916C241.609 324.748 240.754 325.218 239.861 325.232Z" fill="#FAFAFA"/>
<path d="M200.62 325.232C200.164 325.233 199.713 325.109 199.295 324.868C198.877 324.627 198.5 324.273 198.187 323.829C197.875 323.385 197.633 322.86 197.478 322.286C197.323 321.712 197.257 321.101 197.284 320.492C197.326 319.296 197.708 318.167 198.351 317.336C198.994 316.504 199.849 316.034 200.742 316.02C201.197 316.019 201.648 316.143 202.067 316.384C202.485 316.625 202.862 316.979 203.175 317.423C203.487 317.867 203.728 318.392 203.884 318.966C204.039 319.54 204.105 320.151 204.078 320.76C204.038 321.957 203.657 323.088 203.014 323.92C202.371 324.752 201.514 325.222 200.62 325.232Z" fill="#FAFAFA"/>
</g>
<path d="M210.427 341.898H190.69C190.404 341.901 190.12 341.824 189.857 341.673C189.594 341.522 189.357 341.299 189.162 341.019C188.967 340.738 188.817 340.407 188.722 340.045C188.627 339.683 188.589 339.299 188.61 338.916C188.632 338.135 188.874 337.394 189.286 336.841C189.699 336.288 190.251 335.964 190.834 335.935H210.572C210.858 335.932 211.141 336.008 211.404 336.16C211.667 336.311 211.904 336.534 212.099 336.814C212.295 337.094 212.445 337.426 212.54 337.787C212.635 338.149 212.672 338.534 212.651 338.916C212.629 339.697 212.388 340.439 211.975 340.992C211.563 341.544 211.01 341.868 210.427 341.898Z" fill="#7671FF"/>
<path d="M249.668 341.898H229.931C229.645 341.901 229.361 341.824 229.098 341.673C228.835 341.522 228.599 341.299 228.403 341.019C228.208 340.738 228.058 340.407 227.963 340.045C227.868 339.683 227.83 339.299 227.852 338.916C227.874 338.122 228.123 337.371 228.548 336.816C228.972 336.261 229.539 335.946 230.131 335.935H249.857C250.144 335.932 250.428 336.008 250.691 336.16C250.955 336.311 251.192 336.533 251.388 336.813C251.585 337.093 251.736 337.424 251.832 337.786C251.928 338.148 251.968 338.533 251.948 338.916C251.925 339.71 251.676 340.462 251.252 341.017C250.828 341.571 250.261 341.887 249.668 341.898Z" fill="#7671FF"/>
<path d="M288.909 341.898H269.172C268.886 341.901 268.602 341.824 268.338 341.673C268.075 341.522 267.837 341.299 267.641 341.019C267.445 340.739 267.294 340.408 267.197 340.046C267.101 339.684 267.062 339.3 267.082 338.916C267.104 338.122 267.354 337.371 267.778 336.816C268.202 336.261 268.769 335.946 269.361 335.935H289.11C289.396 335.932 289.679 336.008 289.942 336.16C290.205 336.311 290.442 336.534 290.637 336.814C290.833 337.094 290.983 337.426 291.078 337.787C291.173 338.149 291.211 338.534 291.189 338.916C291.169 339.711 290.921 340.465 290.496 341.021C290.071 341.576 289.503 341.89 288.909 341.898Z" fill="#7671FF"/>
<path d="M328.139 341.898H308.402C308.116 341.901 307.832 341.824 307.569 341.673C307.307 341.522 307.07 341.299 306.874 341.019C306.679 340.738 306.529 340.407 306.434 340.045C306.339 339.683 306.301 339.299 306.323 338.916C306.345 338.135 306.586 337.394 306.999 336.841C307.411 336.288 307.964 335.964 308.547 335.935H328.284C328.57 335.932 328.854 336.008 329.117 336.16C329.38 336.311 329.616 336.534 329.812 336.814C330.007 337.094 330.157 337.426 330.252 337.787C330.347 338.149 330.385 338.534 330.363 338.916C330.341 339.697 330.1 340.439 329.688 340.992C329.275 341.544 328.722 341.868 328.139 341.898Z" fill="#7671FF"/>
<path d="M367.381 341.898H347.643C347.357 341.901 347.074 341.824 346.811 341.673C346.548 341.522 346.311 341.299 346.116 341.019C345.92 340.738 345.77 340.407 345.675 340.045C345.58 339.683 345.542 339.299 345.564 338.916C345.587 338.122 345.836 337.371 346.26 336.816C346.684 336.261 347.251 335.946 347.844 335.935H367.581C367.867 335.932 368.15 336.008 368.413 336.16C368.676 336.311 368.913 336.534 369.109 336.814C369.304 337.094 369.454 337.426 369.549 337.787C369.644 338.149 369.682 338.534 369.66 338.916C369.637 339.71 369.388 340.462 368.964 341.017C368.54 341.571 367.973 341.887 367.381 341.898Z" fill="#7671FF"/>
<path d="M406.621 341.898H386.884C386.598 341.901 386.314 341.824 386.051 341.673C385.788 341.522 385.552 341.299 385.356 341.019C385.161 340.738 385.011 340.407 384.916 340.045C384.821 339.683 384.783 339.299 384.805 338.916C384.827 338.122 385.077 337.371 385.501 336.816C385.925 336.261 386.492 335.946 387.084 335.935H406.81C407.097 335.932 407.381 336.008 407.644 336.16C407.908 336.311 408.145 336.533 408.342 336.813C408.538 337.093 408.689 337.424 408.785 337.786C408.881 338.148 408.921 338.533 408.901 338.916C408.878 339.71 408.629 340.462 408.205 341.017C407.781 341.571 407.214 341.887 406.621 341.898Z" fill="#7671FF"/>
<g opacity="0.3">
<path d="M210.427 341.898H190.69C190.404 341.901 190.12 341.824 189.857 341.673C189.594 341.522 189.357 341.299 189.162 341.019C188.967 340.738 188.817 340.407 188.722 340.045C188.627 339.683 188.589 339.299 188.61 338.916C188.632 338.135 188.874 337.394 189.286 336.841C189.699 336.288 190.251 335.964 190.834 335.935H210.572C210.858 335.932 211.141 336.008 211.404 336.16C211.667 336.311 211.904 336.534 212.099 336.814C212.295 337.094 212.445 337.426 212.54 337.787C212.635 338.149 212.672 338.534 212.651 338.916C212.629 339.697 212.388 340.439 211.975 340.992C211.563 341.544 211.01 341.868 210.427 341.898Z" fill="black"/>
<path d="M249.668 341.898H229.931C229.645 341.901 229.361 341.824 229.098 341.673C228.835 341.522 228.599 341.299 228.403 341.019C228.208 340.738 228.058 340.407 227.963 340.045C227.868 339.683 227.83 339.299 227.852 338.916C227.874 338.122 228.123 337.371 228.548 336.816C228.972 336.261 229.539 335.946 230.131 335.935H249.857C250.144 335.932 250.428 336.008 250.691 336.16C250.955 336.311 251.192 336.533 251.388 336.813C251.585 337.093 251.736 337.424 251.832 337.786C251.928 338.148 251.968 338.533 251.948 338.916C251.925 339.71 251.676 340.462 251.252 341.017C250.828 341.571 250.261 341.887 249.668 341.898Z" fill="black"/>
<path d="M288.909 341.898H269.172C268.886 341.901 268.602 341.824 268.338 341.673C268.075 341.522 267.837 341.299 267.641 341.019C267.445 340.739 267.294 340.408 267.197 340.046C267.101 339.684 267.062 339.3 267.082 338.916C267.104 338.122 267.354 337.371 267.778 336.816C268.202 336.261 268.769 335.946 269.361 335.935H289.11C289.396 335.932 289.679 336.008 289.942 336.16C290.205 336.311 290.442 336.534 290.637 336.814C290.833 337.094 290.983 337.426 291.078 337.787C291.173 338.149 291.211 338.534 291.189 338.916C291.169 339.711 290.921 340.465 290.496 341.021C290.071 341.576 289.503 341.89 288.909 341.898Z" fill="black"/>
<path d="M328.139 341.898H308.402C308.116 341.901 307.832 341.824 307.569 341.673C307.307 341.522 307.07 341.299 306.874 341.019C306.679 340.738 306.529 340.407 306.434 340.045C306.339 339.683 306.301 339.299 306.323 338.916C306.345 338.135 306.586 337.394 306.999 336.841C307.411 336.288 307.964 335.964 308.547 335.935H328.284C328.57 335.932 328.854 336.008 329.117 336.16C329.38 336.311 329.616 336.534 329.812 336.814C330.007 337.094 330.157 337.426 330.252 337.787C330.347 338.149 330.385 338.534 330.363 338.916C330.341 339.697 330.1 340.439 329.688 340.992C329.275 341.544 328.722 341.868 328.139 341.898Z" fill="black"/>
<path d="M367.38 341.898H347.643C347.357 341.901 347.073 341.824 346.81 341.673C346.548 341.522 346.311 341.299 346.115 341.019C345.92 340.738 345.77 340.407 345.675 340.045C345.58 339.683 345.542 339.299 345.564 338.916C345.586 338.122 345.836 337.371 346.26 336.816C346.684 336.261 347.251 335.946 347.843 335.935H367.581C367.867 335.932 368.15 336.008 368.413 336.16C368.676 336.311 368.913 336.534 369.108 336.814C369.304 337.094 369.454 337.426 369.549 337.787C369.644 338.149 369.681 338.534 369.66 338.916C369.637 339.71 369.388 340.462 368.964 341.017C368.54 341.571 367.973 341.887 367.38 341.898Z" fill="black"/>
<path d="M406.621 341.898H386.884C386.598 341.901 386.314 341.824 386.051 341.673C385.788 341.522 385.552 341.299 385.356 341.019C385.161 340.738 385.011 340.407 384.916 340.045C384.821 339.683 384.783 339.299 384.805 338.916C384.827 338.122 385.077 337.371 385.501 336.816C385.925 336.261 386.492 335.946 387.084 335.935H406.81C407.097 335.932 407.381 336.008 407.644 336.16C407.908 336.311 408.145 336.533 408.342 336.813C408.538 337.093 408.689 337.424 408.785 337.786C408.881 338.148 408.921 338.533 408.901 338.916C408.878 339.71 408.629 340.462 408.205 341.017C407.781 341.571 407.214 341.887 406.621 341.898Z" fill="black"/>
</g>
<path d="M211.517 398.2H185.809C185.245 398.203 184.686 398.052 184.168 397.756C183.649 397.459 183.18 397.025 182.791 396.478C182.402 395.931 182.1 395.283 181.904 394.575C181.708 393.866 181.621 393.111 181.65 392.356L182.762 357.892C182.829 356.326 183.337 354.852 184.183 353.767C185.029 352.683 186.151 352.069 187.321 352.049H213.029C213.593 352.046 214.152 352.197 214.67 352.493C215.189 352.789 215.658 353.224 216.047 353.771C216.436 354.318 216.738 354.965 216.934 355.674C217.13 356.383 217.217 357.137 217.188 357.892L216.076 392.356C216.006 393.922 215.497 395.394 214.652 396.477C213.807 397.561 212.687 398.176 211.517 398.2Z" fill="#7671FF"/>
<path d="M250.758 398.2H225.049C224.485 398.205 223.926 398.055 223.406 397.76C222.887 397.465 222.418 397.03 222.028 396.483C221.639 395.935 221.337 395.287 221.141 394.577C220.946 393.868 220.86 393.112 220.891 392.356L222.003 357.892C222.07 356.326 222.578 354.852 223.424 353.767C224.27 352.683 225.391 352.069 226.562 352.049H252.304C252.868 352.046 253.427 352.197 253.946 352.493C254.466 352.789 254.935 353.223 255.325 353.77C255.715 354.317 256.018 354.964 256.215 355.673C256.413 356.382 256.501 357.137 256.473 357.892L255.306 392.356C255.241 393.922 254.736 395.396 253.891 396.48C253.047 397.565 251.927 398.18 250.758 398.2Z" fill="#7671FF"/>
<path d="M289.988 398.2H264.29C263.726 398.203 263.167 398.052 262.648 397.756C262.128 397.46 261.659 397.025 261.269 396.479C260.879 395.932 260.576 395.285 260.379 394.576C260.181 393.867 260.093 393.112 260.121 392.356L261.233 357.892C261.3 356.326 261.808 354.852 262.654 353.768C263.5 352.683 264.621 352.069 265.792 352.049H291.489C292.053 352.044 292.612 352.194 293.132 352.489C293.651 352.784 294.12 353.219 294.51 353.766C294.9 354.314 295.201 354.962 295.397 355.672C295.593 356.381 295.678 357.137 295.648 357.892L294.536 392.356C294.468 393.92 293.962 395.392 293.118 396.476C292.275 397.56 291.156 398.176 289.988 398.2Z" fill="#7671FF"/>
<path d="M329.229 398.2H303.565C303 398.205 302.441 398.055 301.92 397.76C301.4 397.465 300.931 397.03 300.54 396.483C300.15 395.936 299.847 395.288 299.65 394.578C299.453 393.869 299.366 393.113 299.395 392.356L300.507 357.892C300.572 356.327 301.077 354.853 301.921 353.769C302.766 352.684 303.886 352.069 305.055 352.049H330.763C331.327 352.046 331.886 352.197 332.404 352.493C332.923 352.789 333.392 353.224 333.781 353.771C334.17 354.318 334.472 354.965 334.668 355.674C334.864 356.383 334.951 357.137 334.922 357.892L333.81 392.356C333.743 393.928 333.231 395.406 332.381 396.491C331.53 397.577 330.403 398.187 329.229 398.2Z" fill="#7671FF"/>
<path d="M368.47 398.2H342.762C342.198 398.203 341.64 398.052 341.121 397.756C340.602 397.46 340.134 397.025 339.744 396.478C339.355 395.931 339.053 395.283 338.857 394.575C338.661 393.866 338.574 393.111 338.603 392.356L339.715 357.892C339.782 356.326 340.29 354.852 341.136 353.768C341.982 352.683 343.104 352.069 344.274 352.049H369.971C370.536 352.044 371.096 352.194 371.616 352.489C372.136 352.784 372.606 353.218 372.996 353.766C373.387 354.313 373.69 354.961 373.886 355.671C374.083 356.38 374.17 357.136 374.141 357.892L373.029 392.356C372.959 393.922 372.451 395.394 371.605 396.477C370.76 397.561 369.64 398.176 368.47 398.2Z" fill="#7671FF"/>
<path d="M407.7 398.2H382.003C381.438 398.205 380.879 398.055 380.36 397.76C379.84 397.465 379.371 397.03 378.982 396.483C378.592 395.935 378.29 395.287 378.094 394.577C377.899 393.868 377.814 393.112 377.844 392.356L378.956 357.892C379.023 356.326 379.531 354.852 380.377 353.767C381.223 352.683 382.344 352.069 383.515 352.049H409.212C409.777 352.046 410.335 352.197 410.855 352.493C411.374 352.789 411.843 353.223 412.233 353.77C412.623 354.317 412.926 354.964 413.124 355.673C413.321 356.382 413.409 357.137 413.382 357.892L412.215 392.356C412.15 393.914 411.649 395.382 410.812 396.465C409.975 397.549 408.863 398.168 407.7 398.2Z" fill="#7671FF"/>
<g opacity="0.8">
<path d="M211.517 398.2H185.809C185.245 398.203 184.686 398.052 184.168 397.756C183.649 397.46 183.18 397.025 182.791 396.478C182.402 395.931 182.1 395.283 181.904 394.575C181.708 393.866 181.621 393.111 181.65 392.356L182.762 357.892C182.829 356.326 183.337 354.852 184.183 353.768C185.029 352.683 186.151 352.069 187.321 352.049H213.029C213.593 352.046 214.152 352.197 214.67 352.493C215.189 352.789 215.658 353.224 216.047 353.771C216.436 354.318 216.738 354.965 216.934 355.674C217.13 356.383 217.217 357.138 217.188 357.892L216.076 392.356C216.006 393.922 215.497 395.394 214.652 396.477C213.807 397.561 212.687 398.176 211.517 398.2Z" fill="#FAFAFA"/>
<path d="M250.758 398.2H225.049C224.485 398.205 223.926 398.055 223.406 397.76C222.887 397.465 222.418 397.03 222.028 396.483C221.639 395.935 221.337 395.287 221.141 394.577C220.946 393.868 220.86 393.112 220.891 392.357L222.003 357.893C222.07 356.326 222.578 354.852 223.424 353.768C224.27 352.683 225.391 352.069 226.562 352.049H252.304C252.868 352.046 253.427 352.197 253.946 352.493C254.466 352.789 254.935 353.224 255.325 353.77C255.715 354.317 256.018 354.964 256.215 355.673C256.413 356.382 256.501 357.137 256.473 357.893L255.306 392.357C255.241 393.922 254.736 395.396 253.891 396.48C253.047 397.565 251.927 398.18 250.758 398.2Z" fill="#FAFAFA"/>
<path d="M289.988 398.2H264.291C263.726 398.203 263.167 398.052 262.648 397.756C262.129 397.46 261.66 397.025 261.27 396.479C260.879 395.932 260.576 395.285 260.379 394.576C260.181 393.867 260.094 393.112 260.121 392.356L261.233 357.892C261.3 356.326 261.808 354.852 262.654 353.768C263.5 352.683 264.621 352.069 265.792 352.049H291.489C292.054 352.044 292.613 352.194 293.132 352.489C293.652 352.784 294.121 353.219 294.51 353.766C294.9 354.314 295.202 354.962 295.397 355.672C295.593 356.381 295.678 357.137 295.648 357.892L294.536 392.356C294.469 393.92 293.962 395.392 293.119 396.476C292.275 397.56 291.157 398.176 289.988 398.2Z" fill="#FAFAFA"/>
<path d="M329.229 398.2H303.565C303 398.205 302.441 398.055 301.92 397.76C301.4 397.465 300.931 397.031 300.54 396.484C300.15 395.936 299.847 395.288 299.65 394.579C299.453 393.869 299.366 393.113 299.395 392.357L300.507 357.893C300.572 356.327 301.077 354.853 301.921 353.769C302.766 352.684 303.886 352.07 305.055 352.049H330.763C331.327 352.046 331.886 352.197 332.404 352.493C332.923 352.789 333.392 353.224 333.781 353.771C334.17 354.318 334.472 354.966 334.668 355.674C334.864 356.383 334.951 357.138 334.922 357.893L333.81 392.357C333.743 393.928 333.231 395.407 332.381 396.492C331.53 397.577 330.403 398.188 329.229 398.2Z" fill="#FAFAFA"/>
<path d="M368.47 398.2H342.762C342.198 398.203 341.639 398.052 341.12 397.756C340.602 397.46 340.133 397.025 339.744 396.478C339.355 395.931 339.053 395.283 338.857 394.575C338.66 393.866 338.574 393.111 338.603 392.356L339.715 357.892C339.782 356.326 340.29 354.852 341.136 353.768C341.982 352.683 343.103 352.069 344.274 352.049H369.971C370.536 352.044 371.096 352.194 371.616 352.489C372.136 352.784 372.605 353.218 372.996 353.766C373.386 354.313 373.689 354.961 373.886 355.671C374.083 356.38 374.17 357.136 374.141 357.892L373.029 392.356C372.959 393.922 372.45 395.394 371.605 396.477C370.759 397.561 369.64 398.176 368.47 398.2Z" fill="#FAFAFA"/>
<path d="M407.7 398.2H382.003C381.438 398.205 380.879 398.055 380.36 397.76C379.84 397.465 379.371 397.03 378.982 396.483C378.592 395.935 378.29 395.287 378.094 394.577C377.899 393.868 377.814 393.112 377.844 392.357L378.956 357.893C379.023 356.326 379.531 354.852 380.377 353.768C381.223 352.683 382.344 352.069 383.515 352.049H409.212C409.777 352.046 410.335 352.197 410.855 352.493C411.374 352.789 411.843 353.224 412.233 353.77C412.623 354.317 412.926 354.964 413.124 355.673C413.321 356.382 413.409 357.137 413.382 357.893L412.215 392.357C412.15 393.914 411.649 395.382 410.812 396.465C409.975 397.549 408.863 398.169 407.7 398.2Z" fill="#FAFAFA"/>
</g>
<path d="M209.716 451.67H184.007C183.444 451.673 182.885 451.522 182.366 451.226C181.848 450.929 181.379 450.495 180.99 449.948C180.601 449.401 180.299 448.753 180.103 448.045C179.906 447.336 179.82 446.581 179.849 445.826L180.961 411.362C181.031 409.797 181.539 408.325 182.385 407.241C183.23 406.158 184.35 405.542 185.52 405.519H211.273C211.836 405.516 212.395 405.667 212.914 405.963C213.432 406.259 213.901 406.694 214.29 407.241C214.679 407.788 214.981 408.435 215.177 409.144C215.374 409.853 215.46 410.607 215.431 411.362L214.319 445.826C214.249 447.402 213.734 448.882 212.879 449.968C212.024 451.053 210.893 451.661 209.716 451.67Z" fill="#7671FF"/>
<path d="M248.957 451.67H223.248C222.684 451.673 222.126 451.522 221.607 451.226C221.088 450.929 220.62 450.495 220.231 449.948C219.841 449.401 219.54 448.753 219.343 448.045C219.147 447.336 219.061 446.581 219.089 445.826L220.201 411.362C220.269 409.796 220.777 408.322 221.623 407.237C222.469 406.153 223.59 405.539 224.76 405.519H250.458C251.027 405.514 251.591 405.665 252.115 405.963C252.639 406.262 253.111 406.702 253.503 407.255C253.895 407.808 254.198 408.464 254.393 409.181C254.589 409.897 254.672 410.66 254.639 411.422L253.527 445.826C253.462 447.397 252.953 448.875 252.104 449.96C251.255 451.046 250.13 451.657 248.957 451.67Z" fill="#7671FF"/>
<path d="M288.187 451.67H262.489C261.925 451.675 261.366 451.525 260.846 451.23C260.327 450.935 259.858 450.5 259.468 449.952C259.079 449.405 258.777 448.757 258.581 448.047C258.386 447.338 258.3 446.582 258.331 445.826L259.443 411.362C259.51 409.796 260.018 408.322 260.864 407.237C261.71 406.153 262.831 405.539 264.002 405.519H289.699C290.263 405.514 290.823 405.663 291.342 405.959C291.862 406.254 292.331 406.689 292.72 407.236C293.11 407.783 293.412 408.432 293.607 409.142C293.803 409.851 293.888 410.607 293.858 411.362L292.746 445.826C292.678 447.393 292.17 448.867 291.324 449.951C290.478 451.036 289.357 451.65 288.187 451.67Z" fill="#7671FF"/>
<path d="M327.428 451.67H301.73C301.166 451.673 300.607 451.522 300.088 451.226C299.568 450.93 299.099 450.495 298.709 449.949C298.319 449.402 298.016 448.755 297.819 448.046C297.621 447.337 297.533 446.582 297.56 445.826L298.672 411.362C298.737 409.797 299.243 408.323 300.087 407.238C300.931 406.154 302.051 405.539 303.22 405.519H328.929C329.501 405.505 330.07 405.65 330.598 405.945C331.127 406.241 331.604 406.679 332 407.234C332.396 407.788 332.702 408.447 332.899 409.167C333.095 409.888 333.179 410.656 333.143 411.422L332.031 445.886C331.952 447.452 331.434 448.92 330.579 449.993C329.725 451.067 328.599 451.666 327.428 451.67Z" fill="#7671FF"/>
<path d="M366.669 451.67H340.96C340.397 451.673 339.838 451.522 339.319 451.226C338.801 450.929 338.332 450.495 337.943 449.948C337.554 449.401 337.252 448.753 337.056 448.045C336.859 447.336 336.773 446.581 336.802 445.826L337.914 411.362C337.973 409.784 338.479 408.295 339.327 407.199C340.176 406.102 341.305 405.48 342.484 405.459H368.192C368.756 405.456 369.315 405.607 369.833 405.904C370.352 406.2 370.821 406.634 371.21 407.181C371.599 407.728 371.901 408.376 372.097 409.084C372.293 409.793 372.38 410.548 372.351 411.303L371.239 445.767C371.18 447.345 370.674 448.834 369.825 449.931C368.976 451.027 367.848 451.649 366.669 451.67Z" fill="#7671FF"/>
<path d="M405.865 451.67H380.201C379.637 451.675 379.078 451.525 378.558 451.23C378.039 450.935 377.57 450.5 377.18 449.953C376.791 449.405 376.489 448.757 376.293 448.047C376.098 447.338 376.012 446.582 376.043 445.826L377.155 411.362C377.222 409.796 377.73 408.322 378.576 407.237C379.422 406.153 380.543 405.539 381.714 405.519H407.411C407.975 405.516 408.534 405.667 409.054 405.963C409.573 406.259 410.042 406.693 410.432 407.24C410.822 407.787 411.125 408.434 411.323 409.143C411.52 409.852 411.608 410.607 411.581 411.362L410.413 445.826C410.349 447.392 409.843 448.865 408.999 449.95C408.155 451.035 407.035 451.649 405.865 451.67Z" fill="#7671FF"/>
<g opacity="0.8">
<path d="M209.716 451.67H184.007C183.444 451.673 182.885 451.522 182.366 451.226C181.848 450.929 181.379 450.495 180.99 449.948C180.601 449.401 180.299 448.753 180.103 448.045C179.906 447.336 179.82 446.581 179.849 445.826L180.961 411.362C181.031 409.797 181.539 408.325 182.385 407.241C183.23 406.158 184.35 405.542 185.52 405.519H211.273C211.836 405.516 212.395 405.667 212.914 405.963C213.432 406.259 213.901 406.694 214.29 407.241C214.679 407.788 214.981 408.435 215.177 409.144C215.374 409.853 215.46 410.607 215.431 411.362L214.319 445.826C214.249 447.402 213.734 448.882 212.879 449.968C212.024 451.053 210.893 451.661 209.716 451.67Z" fill="#FAFAFA"/>
<path d="M248.957 451.67H223.248C222.684 451.673 222.126 451.522 221.607 451.226C221.088 450.93 220.62 450.495 220.231 449.948C219.841 449.401 219.54 448.753 219.343 448.045C219.147 447.336 219.061 446.581 219.089 445.826L220.201 411.362C220.269 409.796 220.777 408.322 221.623 407.237C222.469 406.153 223.59 405.539 224.76 405.519H250.458C251.027 405.514 251.591 405.665 252.115 405.964C252.639 406.262 253.111 406.702 253.503 407.255C253.895 407.809 254.198 408.464 254.393 409.181C254.589 409.897 254.672 410.66 254.639 411.422L253.527 445.826C253.462 447.397 252.953 448.875 252.104 449.96C251.255 451.046 250.13 451.657 248.957 451.67Z" fill="#FAFAFA"/>
<path d="M288.187 451.67H262.489C261.925 451.675 261.366 451.525 260.846 451.23C260.327 450.935 259.858 450.5 259.468 449.953C259.079 449.405 258.777 448.757 258.581 448.047C258.386 447.338 258.3 446.582 258.331 445.826L259.443 411.362C259.51 409.796 260.018 408.322 260.864 407.237C261.71 406.153 262.831 405.539 264.002 405.519H289.699C290.263 405.514 290.823 405.663 291.342 405.959C291.862 406.254 292.331 406.689 292.72 407.236C293.11 407.784 293.412 408.432 293.607 409.142C293.803 409.851 293.888 410.607 293.858 411.362L292.746 445.826C292.678 447.393 292.17 448.867 291.324 449.951C290.478 451.036 289.357 451.65 288.187 451.67Z" fill="#FAFAFA"/>
<path d="M327.428 451.67H301.73C301.166 451.673 300.607 451.522 300.088 451.226C299.568 450.93 299.099 450.495 298.709 449.949C298.319 449.402 298.016 448.755 297.819 448.046C297.621 447.337 297.533 446.582 297.56 445.826L298.672 411.362C298.737 409.797 299.243 408.323 300.087 407.239C300.931 406.154 302.051 405.539 303.22 405.519H328.929C329.501 405.505 330.07 405.65 330.598 405.946C331.127 406.241 331.604 406.679 332 407.234C332.396 407.788 332.702 408.447 332.899 409.168C333.095 409.888 333.179 410.656 333.143 411.422L332.031 445.886C331.952 447.452 331.434 448.92 330.579 449.993C329.725 451.067 328.599 451.666 327.428 451.67Z" fill="#FAFAFA"/>
<path d="M366.669 451.67H340.96C340.396 451.673 339.838 451.522 339.319 451.226C338.8 450.929 338.332 450.495 337.943 449.948C337.554 449.401 337.252 448.753 337.055 448.045C336.859 447.336 336.773 446.581 336.802 445.826L337.913 411.362C337.973 409.784 338.478 408.295 339.327 407.199C340.176 406.102 341.305 405.48 342.484 405.459H368.192C368.756 405.456 369.314 405.607 369.833 405.904C370.352 406.2 370.82 406.634 371.21 407.181C371.599 407.728 371.901 408.376 372.097 409.084C372.293 409.793 372.38 410.548 372.351 411.303L371.239 445.767C371.18 447.345 370.674 448.834 369.825 449.931C368.976 451.027 367.848 451.649 366.669 451.67Z" fill="#FAFAFA"/>
<path d="M405.865 451.67H380.201C379.637 451.675 379.078 451.525 378.558 451.23C378.039 450.935 377.57 450.5 377.18 449.953C376.791 449.405 376.489 448.757 376.293 448.047C376.098 447.338 376.012 446.582 376.043 445.826L377.155 411.362C377.222 409.796 377.73 408.322 378.576 407.237C379.422 406.153 380.543 405.539 381.714 405.519H407.411C407.975 405.516 408.534 405.667 409.054 405.963C409.573 406.259 410.042 406.693 410.432 407.24C410.822 407.787 411.125 408.434 411.323 409.143C411.52 409.852 411.608 410.607 411.581 411.362L410.413 445.826C410.349 447.392 409.843 448.865 408.999 449.95C408.155 451.035 407.035 451.649 405.865 451.67Z" fill="#FAFAFA"/>
</g>
<path d="M207.936 505.125H182.206C181.641 505.13 181.082 504.98 180.563 504.685C180.043 504.39 179.574 503.955 179.185 503.408C178.795 502.86 178.493 502.212 178.298 501.502C178.102 500.793 178.017 500.037 178.047 499.281L179.159 464.832C179.226 463.266 179.734 461.792 180.58 460.707C181.426 459.623 182.548 459.009 183.718 458.989H209.427C209.991 458.984 210.55 459.133 211.07 459.429C211.589 459.724 212.058 460.159 212.448 460.706C212.837 461.254 213.139 461.902 213.335 462.612C213.53 463.321 213.616 464.077 213.585 464.832L212.473 499.281C212.409 500.844 211.905 502.316 211.063 503.4C210.221 504.485 209.104 505.101 207.936 505.125Z" fill="#7671FF"/>
<path d="M247.155 505.125H221.447C220.883 505.13 220.324 504.98 219.804 504.685C219.284 504.39 218.815 503.955 218.426 503.408C218.036 502.86 217.734 502.212 217.539 501.502C217.343 500.793 217.258 500.037 217.288 499.281L218.4 464.832C218.465 463.265 218.972 461.789 219.819 460.703C220.665 459.618 221.788 459.005 222.959 458.989H248.657C249.222 458.982 249.782 459.13 250.303 459.424C250.824 459.719 251.294 460.153 251.685 460.701C252.076 461.248 252.379 461.897 252.575 462.608C252.771 463.319 252.857 464.076 252.826 464.832L251.714 499.281C251.652 500.85 251.146 502.328 250.299 503.414C249.452 504.5 248.327 505.112 247.155 505.125Z" fill="#7671FF"/>
<path d="M286.385 505.125H260.688C260.123 505.13 259.564 504.98 259.045 504.685C258.525 504.39 258.056 503.955 257.667 503.408C257.277 502.86 256.975 502.212 256.78 501.502C256.584 500.793 256.499 500.037 256.529 499.281L257.641 464.832C257.706 463.264 258.213 461.788 259.059 460.703C259.906 459.618 261.029 459.005 262.2 458.989H287.997C288.562 458.984 289.122 459.133 289.642 459.429C290.162 459.724 290.632 460.158 291.022 460.705C291.413 461.252 291.715 461.901 291.912 462.61C292.109 463.32 292.196 464.076 292.167 464.832L291 499.281C290.934 500.862 290.419 502.349 289.561 503.436C288.702 504.523 287.566 505.127 286.385 505.125Z" fill="#7671FF"/>
<path d="M325.627 505.125H299.929C299.364 505.13 298.805 504.98 298.285 504.685C297.765 504.39 297.295 503.955 296.904 503.408C296.514 502.861 296.211 502.213 296.014 501.503C295.817 500.794 295.731 500.038 295.759 499.281L296.871 464.832C296.933 463.266 297.438 461.79 298.283 460.704C299.128 459.619 300.249 459.006 301.419 458.989H327.128C327.692 458.984 328.251 459.133 328.771 459.429C329.29 459.724 329.759 460.159 330.149 460.706C330.538 461.254 330.84 461.902 331.036 462.612C331.231 463.321 331.317 464.077 331.286 464.832L330.174 499.281C330.11 500.847 329.604 502.321 328.76 503.405C327.916 504.49 326.796 505.105 325.627 505.125Z" fill="#7671FF"/>
<path d="M364.867 505.125H339.148C338.583 505.13 338.024 504.98 337.505 504.685C336.985 504.39 336.516 503.955 336.127 503.408C335.737 502.86 335.435 502.212 335.239 501.502C335.044 500.793 334.959 500.037 334.989 499.281L336.101 464.832C336.168 463.266 336.676 461.792 337.522 460.707C338.368 459.623 339.489 459.009 340.66 458.989H366.368C366.933 458.984 367.492 459.133 368.011 459.429C368.531 459.724 369 460.159 369.389 460.706C369.779 461.254 370.081 461.902 370.277 462.612C370.472 463.321 370.557 464.077 370.527 464.832L369.415 499.281C369.348 500.845 368.842 502.317 367.998 503.401C367.154 504.485 366.036 505.101 364.867 505.125Z" fill="#7671FF"/>
<path d="M404.109 505.125H378.4C377.836 505.13 377.277 504.98 376.757 504.685C376.238 504.39 375.769 503.955 375.379 503.408C374.989 502.86 374.688 502.212 374.492 501.502C374.296 500.793 374.211 500.037 374.241 499.281L375.353 464.832C375.418 463.264 375.925 461.788 376.772 460.703C377.618 459.618 378.741 459.005 379.912 458.989H405.61C406.175 458.984 406.734 459.133 407.254 459.429C407.774 459.724 408.244 460.158 408.634 460.705C409.025 461.252 409.328 461.901 409.525 462.61C409.722 463.32 409.808 464.076 409.78 464.832L408.612 499.281C408.55 500.838 408.052 502.305 407.217 503.389C406.381 504.473 405.271 505.093 404.109 505.125Z" fill="#7671FF"/>
<g opacity="0.8">
<path d="M207.936 505.125H182.206C181.641 505.13 181.082 504.981 180.563 504.685C180.043 504.39 179.574 503.955 179.185 503.408C178.795 502.86 178.493 502.212 178.298 501.502C178.102 500.793 178.017 500.037 178.047 499.282L179.159 464.833C179.226 463.266 179.734 461.792 180.58 460.708C181.426 459.623 182.548 459.009 183.718 458.989H209.427C209.991 458.984 210.55 459.134 211.07 459.429C211.589 459.724 212.058 460.159 212.448 460.706C212.837 461.254 213.139 461.902 213.335 462.612C213.53 463.321 213.616 464.077 213.585 464.833L212.473 499.282C212.409 500.844 211.905 502.316 211.063 503.4C210.221 504.485 209.104 505.101 207.936 505.125Z" fill="#FAFAFA"/>
<path d="M247.155 505.125H221.447C220.883 505.13 220.324 504.98 219.804 504.685C219.284 504.39 218.815 503.955 218.426 503.408C218.036 502.86 217.734 502.212 217.539 501.502C217.343 500.793 217.258 500.037 217.288 499.281L218.4 464.832C218.465 463.265 218.972 461.789 219.819 460.703C220.665 459.618 221.788 459.005 222.959 458.989H248.657C249.222 458.982 249.782 459.13 250.303 459.424C250.824 459.719 251.294 460.153 251.685 460.701C252.076 461.248 252.379 461.897 252.575 462.608C252.771 463.319 252.857 464.076 252.826 464.832L251.714 499.281C251.652 500.85 251.146 502.328 250.299 503.414C249.452 504.5 248.327 505.112 247.155 505.125Z" fill="#FAFAFA"/>
<path d="M286.385 505.125H260.688C260.124 505.13 259.564 504.981 259.045 504.685C258.525 504.39 258.056 503.955 257.667 503.408C257.277 502.86 256.975 502.212 256.78 501.502C256.584 500.793 256.499 500.037 256.529 499.282L257.641 464.832C257.706 463.265 258.213 461.789 259.06 460.704C259.906 459.619 261.029 459.006 262.2 458.989H287.998C288.562 458.984 289.122 459.134 289.642 459.429C290.162 459.724 290.632 460.158 291.022 460.706C291.413 461.253 291.716 461.901 291.913 462.611C292.11 463.32 292.196 464.076 292.168 464.832L291 499.282C290.935 500.862 290.42 502.349 289.561 503.436C288.703 504.523 287.566 505.127 286.385 505.125Z" fill="#FAFAFA"/>
<path d="M325.627 505.125H299.929C299.364 505.13 298.805 504.98 298.285 504.685C297.765 504.39 297.295 503.956 296.904 503.409C296.514 502.861 296.211 502.213 296.014 501.504C295.817 500.794 295.731 500.038 295.759 499.282L296.871 464.833C296.933 463.266 297.438 461.79 298.283 460.705C299.128 459.619 300.249 459.006 301.419 458.989H327.128C327.692 458.984 328.251 459.134 328.771 459.429C329.29 459.724 329.759 460.159 330.149 460.706C330.538 461.254 330.84 461.902 331.036 462.612C331.231 463.321 331.317 464.077 331.286 464.833L330.174 499.282C330.11 500.847 329.604 502.321 328.76 503.405C327.916 504.49 326.796 505.105 325.627 505.125Z" fill="#FAFAFA"/>
<path d="M364.868 505.125H339.148C338.584 505.13 338.024 504.981 337.505 504.685C336.985 504.39 336.516 503.955 336.127 503.408C335.737 502.86 335.435 502.212 335.24 501.502C335.044 500.793 334.959 500.037 334.989 499.282L336.101 464.833C336.169 463.266 336.676 461.792 337.522 460.708C338.369 459.623 339.49 459.009 340.66 458.989H366.369C366.933 458.984 367.492 459.134 368.012 459.429C368.531 459.724 369 460.159 369.39 460.706C369.779 461.254 370.081 461.902 370.277 462.612C370.472 463.321 370.558 464.077 370.527 464.833L369.415 499.282C369.348 500.846 368.842 502.318 367.998 503.402C367.154 504.486 366.036 505.101 364.868 505.125Z" fill="#FAFAFA"/>
<path d="M404.109 505.125H378.4C377.836 505.13 377.277 504.981 376.757 504.685C376.238 504.39 375.769 503.955 375.379 503.408C374.989 502.86 374.688 502.212 374.492 501.502C374.296 500.793 374.211 500.037 374.241 499.282L375.353 464.832C375.418 463.265 375.925 461.789 376.772 460.704C377.618 459.619 378.741 459.006 379.912 458.989H405.61C406.175 458.984 406.734 459.134 407.254 459.429C407.774 459.724 408.244 460.158 408.634 460.706C409.025 461.253 409.328 461.901 409.525 462.611C409.722 463.32 409.808 464.076 409.78 464.832L408.612 499.282C408.55 500.838 408.052 502.305 407.217 503.389C406.381 504.473 405.271 505.093 404.109 505.125Z" fill="#FAFAFA"/>
</g>
<path d="M200.653 324.129C191.179 324.129 183.751 309.356 183.751 290.5C183.751 271.643 191.179 256.885 200.653 256.885C210.127 256.885 217.566 271.658 217.566 290.5C217.523 291.383 217.231 292.212 216.749 292.818C216.266 293.423 215.63 293.76 214.97 293.76C214.309 293.76 213.673 293.423 213.191 292.818C212.709 292.212 212.416 291.383 212.373 290.5C212.373 276.055 207.014 263.832 200.653 263.832C194.293 263.832 188.933 276.055 188.933 290.5C188.933 304.944 194.304 317.168 200.653 317.168C201.009 317.136 201.365 317.203 201.7 317.364C202.035 317.525 202.342 317.776 202.602 318.102C202.862 318.429 203.069 318.823 203.211 319.261C203.352 319.699 203.425 320.171 203.425 320.648C203.425 321.126 203.352 321.598 203.211 322.036C203.069 322.473 202.862 322.868 202.602 323.194C202.342 323.52 202.035 323.772 201.7 323.932C201.365 324.093 201.009 324.16 200.653 324.129Z" fill="#7671FF"/>
<path d="M239.894 324.129C230.42 324.129 222.992 309.356 222.992 290.5C222.992 271.643 230.42 256.885 239.894 256.885C249.368 256.885 256.863 271.658 256.863 290.5C256.82 291.383 256.527 292.212 256.045 292.818C255.563 293.423 254.927 293.76 254.266 293.76C253.606 293.76 252.97 293.423 252.488 292.818C252.005 292.212 251.713 291.383 251.67 290.5C251.67 276.055 246.31 263.832 239.95 263.832C233.589 263.832 228.23 276.055 228.23 290.5C228.23 304.944 233.601 317.168 239.95 317.168C240.609 317.225 241.227 317.617 241.679 318.264C242.13 318.91 242.382 319.763 242.382 320.648C242.382 321.534 242.13 322.386 241.679 323.033C241.227 323.679 240.609 324.071 239.95 324.129H239.894Z" fill="#7671FF"/>
<path d="M279.102 324.129C269.617 324.129 262.189 309.356 262.189 290.5C262.189 271.643 269.617 256.885 279.102 256.885C288.587 256.885 296.004 271.658 296.004 290.5C296.004 291.421 295.731 292.304 295.245 292.956C294.759 293.607 294.1 293.973 293.413 293.973C292.726 293.973 292.067 293.607 291.581 292.956C291.095 292.304 290.822 291.421 290.822 290.5C290.822 276.055 285.451 263.832 279.102 263.832C272.753 263.832 267.382 276.055 267.382 290.5C267.382 304.944 272.753 317.168 279.102 317.168C279.761 317.225 280.379 317.617 280.831 318.264C281.283 318.91 281.534 319.763 281.534 320.648C281.534 321.534 281.283 322.386 280.831 323.033C280.379 323.679 279.761 324.071 279.102 324.129Z" fill="#7671FF"/>
<path d="M318.376 324.129C308.891 324.129 301.463 309.356 301.463 290.5C301.463 271.643 308.891 256.885 318.376 256.885C327.861 256.885 335.278 271.658 335.278 290.5C335.278 291.421 335.005 292.304 334.519 292.956C334.033 293.607 333.374 293.973 332.687 293.973C332 293.973 331.341 293.607 330.855 292.956C330.369 292.304 330.096 291.421 330.096 290.5C330.096 276.055 324.726 263.832 318.376 263.832C312.027 263.832 306.656 276.055 306.656 290.5C306.656 304.944 312.016 317.168 318.376 317.168C319.036 317.225 319.654 317.617 320.105 318.264C320.557 318.91 320.808 319.763 320.808 320.648C320.808 321.534 320.557 322.386 320.105 323.033C319.654 323.679 319.036 324.071 318.376 324.129Z" fill="#7671FF"/>
<path d="M357.606 324.129C348.132 324.129 340.705 309.356 340.705 290.5C340.705 271.643 348.132 256.885 357.606 256.885C367.08 256.885 374.519 271.658 374.519 290.5C374.476 291.383 374.184 292.212 373.702 292.818C373.219 293.423 372.584 293.76 371.923 293.76C371.262 293.76 370.626 293.423 370.144 292.818C369.662 292.212 369.37 291.383 369.326 290.5C369.326 276.055 363.967 263.832 357.606 263.832C351.246 263.832 345.886 276.055 345.886 290.5C345.886 304.944 351.257 317.168 357.606 317.168C357.962 317.136 358.318 317.203 358.653 317.364C358.988 317.525 359.295 317.776 359.555 318.102C359.815 318.429 360.022 318.823 360.164 319.261C360.305 319.699 360.378 320.171 360.378 320.648C360.378 321.126 360.305 321.598 360.164 322.036C360.022 322.473 359.815 322.868 359.555 323.194C359.295 323.52 358.988 323.772 358.653 323.932C358.318 324.093 357.962 324.16 357.606 324.129Z" fill="#7671FF"/>
<path d="M396.847 324.129C387.373 324.129 379.946 309.356 379.946 290.5C379.946 271.643 387.373 256.885 396.847 256.885C406.321 256.885 413.76 271.658 413.76 290.5C413.717 291.383 413.425 292.212 412.943 292.818C412.46 293.423 411.825 293.76 411.164 293.76C410.503 293.76 409.867 293.423 409.385 292.818C408.903 292.212 408.611 291.383 408.567 290.5C408.567 276.055 403.197 263.832 396.847 263.832C390.498 263.832 385.127 276.055 385.127 290.5C385.127 304.944 390.498 317.168 396.847 317.168C397.507 317.225 398.125 317.617 398.576 318.264C399.028 318.91 399.279 319.763 399.279 320.648C399.279 321.534 399.028 322.386 398.576 323.033C398.125 323.679 397.507 324.071 396.847 324.129Z" fill="#7671FF"/>
<g opacity="0.3">
<path d="M200.653 324.129C191.179 324.129 183.751 309.356 183.751 290.5C183.751 271.643 191.179 256.885 200.653 256.885C210.127 256.885 217.566 271.658 217.566 290.5C217.523 291.383 217.231 292.212 216.749 292.818C216.266 293.423 215.63 293.76 214.97 293.76C214.309 293.76 213.673 293.423 213.191 292.818C212.709 292.212 212.416 291.383 212.373 290.5C212.373 276.055 207.014 263.832 200.653 263.832C194.293 263.832 188.933 276.055 188.933 290.5C188.933 304.944 194.304 317.168 200.653 317.168C201.009 317.136 201.365 317.203 201.7 317.364C202.035 317.525 202.342 317.776 202.602 318.102C202.862 318.429 203.069 318.823 203.211 319.261C203.352 319.699 203.425 320.171 203.425 320.648C203.425 321.126 203.352 321.598 203.211 322.036C203.069 322.473 202.862 322.868 202.602 323.194C202.342 323.52 202.035 323.772 201.7 323.932C201.365 324.093 201.009 324.16 200.653 324.129Z" fill="black"/>
<path d="M239.894 324.129C230.42 324.129 222.992 309.356 222.992 290.5C222.992 271.643 230.42 256.885 239.894 256.885C249.368 256.885 256.863 271.658 256.863 290.5C256.82 291.383 256.527 292.212 256.045 292.818C255.563 293.423 254.927 293.76 254.266 293.76C253.606 293.76 252.97 293.423 252.488 292.818C252.005 292.212 251.713 291.383 251.67 290.5C251.67 276.055 246.31 263.832 239.95 263.832C233.589 263.832 228.23 276.055 228.23 290.5C228.23 304.944 233.601 317.168 239.95 317.168C240.609 317.225 241.227 317.617 241.679 318.264C242.13 318.91 242.382 319.763 242.382 320.648C242.382 321.534 242.13 322.386 241.679 323.033C241.227 323.679 240.609 324.071 239.95 324.129H239.894Z" fill="black"/>
<path d="M279.102 324.129C269.617 324.129 262.189 309.356 262.189 290.5C262.189 271.643 269.617 256.885 279.102 256.885C288.587 256.885 296.004 271.658 296.004 290.5C296.004 291.421 295.731 292.304 295.245 292.956C294.759 293.607 294.1 293.973 293.413 293.973C292.726 293.973 292.067 293.607 291.581 292.956C291.095 292.304 290.822 291.421 290.822 290.5C290.822 276.055 285.451 263.832 279.102 263.832C272.753 263.832 267.382 276.055 267.382 290.5C267.382 304.944 272.753 317.168 279.102 317.168C279.761 317.225 280.379 317.617 280.831 318.264C281.283 318.91 281.534 319.763 281.534 320.648C281.534 321.534 281.283 322.386 280.831 323.033C280.379 323.679 279.761 324.071 279.102 324.129Z" fill="black"/>
<path d="M318.376 324.129C308.891 324.129 301.463 309.356 301.463 290.5C301.463 271.643 308.891 256.885 318.376 256.885C327.861 256.885 335.278 271.658 335.278 290.5C335.278 291.421 335.005 292.304 334.519 292.956C334.033 293.607 333.374 293.973 332.687 293.973C332 293.973 331.341 293.607 330.855 292.956C330.369 292.304 330.096 291.421 330.096 290.5C330.096 276.055 324.726 263.832 318.376 263.832C312.027 263.832 306.656 276.055 306.656 290.5C306.656 304.944 312.016 317.168 318.376 317.168C319.036 317.225 319.654 317.617 320.105 318.264C320.557 318.91 320.808 319.763 320.808 320.648C320.808 321.534 320.557 322.386 320.105 323.033C319.654 323.679 319.036 324.071 318.376 324.129Z" fill="black"/>
<path d="M357.606 324.129C348.132 324.129 340.705 309.356 340.705 290.5C340.705 271.643 348.132 256.885 357.606 256.885C367.08 256.885 374.519 271.658 374.519 290.5C374.476 291.383 374.184 292.212 373.702 292.818C373.219 293.423 372.584 293.76 371.923 293.76C371.262 293.76 370.626 293.423 370.144 292.818C369.662 292.212 369.37 291.383 369.326 290.5C369.326 276.055 363.967 263.832 357.606 263.832C351.246 263.832 345.886 276.055 345.886 290.5C345.886 304.944 351.257 317.168 357.606 317.168C357.962 317.136 358.318 317.203 358.653 317.364C358.988 317.525 359.295 317.776 359.555 318.102C359.815 318.429 360.022 318.823 360.164 319.261C360.305 319.699 360.378 320.171 360.378 320.648C360.378 321.126 360.305 321.598 360.164 322.036C360.022 322.473 359.815 322.868 359.555 323.194C359.295 323.52 358.988 323.772 358.653 323.932C358.318 324.093 357.962 324.16 357.606 324.129Z" fill="black"/>
<path d="M396.847 324.129C387.373 324.129 379.946 309.356 379.946 290.5C379.946 271.643 387.373 256.885 396.847 256.885C406.321 256.885 413.76 271.658 413.76 290.5C413.717 291.383 413.425 292.212 412.943 292.818C412.46 293.423 411.825 293.76 411.164 293.76C410.503 293.76 409.867 293.423 409.385 292.818C408.903 292.212 408.611 291.383 408.567 290.5C408.567 276.055 403.197 263.832 396.847 263.832C390.498 263.832 385.127 276.055 385.127 290.5C385.127 304.944 390.498 317.168 396.847 317.168C397.507 317.225 398.125 317.617 398.576 318.264C399.028 318.91 399.279 319.763 399.279 320.648C399.279 321.534 399.028 322.386 398.576 323.033C398.125 323.679 397.507 324.071 396.847 324.129Z" fill="black"/>
</g>
<path d="M321.001 400.123C311.927 397.708 301.741 400.525 298.105 413.345C295.181 423.66 298.928 434.84 307.001 437.568C314.118 439.968 326.394 437.031 328.929 426.03C331.831 413.449 320.033 409.365 313.417 408.619C311.427 408.396 311.438 412.57 313.417 412.793C316.43 413.136 319.878 413.36 322.546 415.581C328.106 420.247 325.815 427.73 321.078 431.307C316.341 434.885 309.08 435.779 304.399 431.814C299.284 427.446 299.117 417.847 302.175 411.586C306.189 403.313 313.517 402.389 320.122 404.133C322.079 404.654 322.913 400.63 320.945 400.108L321.001 400.123Z" fill="#7671FF"/>
<path opacity="0.1" d="M321.001 400.123C311.927 397.708 301.741 400.525 298.105 413.345C295.181 423.66 298.928 434.84 307.001 437.568C314.118 439.968 326.394 437.031 328.929 426.03C331.831 413.449 320.033 409.365 313.417 408.619C311.427 408.396 311.438 412.57 313.417 412.793C316.43 413.136 319.878 413.36 322.546 415.581C328.106 420.247 325.815 427.73 321.078 431.307C316.341 434.885 309.08 435.779 304.399 431.814C299.284 427.446 299.117 417.847 302.175 411.586C306.189 403.313 313.517 402.389 320.122 404.133C322.079 404.654 322.913 400.63 320.945 400.108L321.001 400.123Z" fill="#FAFAFA"/>
<path d="M220.891 352.109C229.568 367.53 239.243 381.896 249.802 395.04C251.27 396.873 253.483 393.922 252.026 392.058C241.648 379.174 232.134 365.093 223.593 349.977C222.403 347.86 219.701 349.977 220.913 352.079L220.891 352.109Z" fill="#7671FF"/>
<path d="M224.105 393.295C230.665 377.658 242.152 364.317 253.016 354.106C254.639 352.615 253.093 348.948 251.448 350.499C240.15 361.142 228.275 374.886 221.425 391.179C221.237 391.653 221.193 392.207 221.302 392.724C221.411 393.241 221.664 393.682 222.01 393.955C222.355 394.228 222.766 394.312 223.156 394.189C223.546 394.066 223.886 393.746 224.105 393.295Z" fill="#7671FF"/>
<g opacity="0.2">
<path d="M220.891 352.109C229.568 367.53 239.243 381.896 249.802 395.04C251.27 396.873 253.483 393.922 252.026 392.058C241.648 379.174 232.134 365.093 223.593 349.977C222.403 347.86 219.701 349.977 220.913 352.079L220.891 352.109Z" fill="black"/>
<path d="M224.105 393.295C230.665 377.658 242.152 364.317 253.016 354.106C254.639 352.615 253.093 348.948 251.448 350.499C240.15 361.142 228.275 374.886 221.425 391.179C221.237 391.653 221.193 392.207 221.302 392.724C221.411 393.241 221.664 393.682 222.01 393.955C222.355 394.228 222.766 394.312 223.156 394.189C223.546 394.066 223.886 393.746 224.105 393.295Z" fill="black"/>
</g>
<path d="M344.563 365.45H364.856C365.245 365.406 365.607 365.168 365.871 364.783C366.135 364.397 366.282 363.894 366.282 363.371C366.282 362.848 366.135 362.344 365.871 361.959C365.607 361.573 365.245 361.335 364.856 361.291H344.563C344.174 361.335 343.812 361.573 343.548 361.959C343.284 362.344 343.138 362.848 343.138 363.371C343.138 363.894 343.284 364.397 343.548 364.783C343.812 365.168 344.174 365.406 344.563 365.45Z" fill="#7671FF"/>
<path d="M344.33 373.187H356.094C356.507 373.187 356.903 372.967 357.195 372.575C357.487 372.184 357.651 371.653 357.651 371.1C357.651 370.546 357.487 370.015 357.195 369.624C356.903 369.233 356.507 369.013 356.094 369.013H344.33C343.917 369.013 343.521 369.233 343.229 369.624C342.937 370.015 342.773 370.546 342.773 371.1C342.773 371.653 342.937 372.184 343.229 372.575C343.521 372.967 343.917 373.187 344.33 373.187Z" fill="#7671FF"/>
<g opacity="0.1">
<path d="M344.563 365.45H364.856C365.245 365.406 365.607 365.168 365.871 364.783C366.135 364.397 366.282 363.894 366.282 363.371C366.282 362.848 366.135 362.344 365.871 361.959C365.607 361.573 365.245 361.335 364.856 361.291H344.563C344.174 361.335 343.812 361.573 343.548 361.959C343.284 362.344 343.138 362.848 343.138 363.371C343.138 363.894 343.284 364.397 343.548 364.783C343.812 365.168 344.174 365.406 344.563 365.45Z" fill="#FAFAFA"/>
<path d="M344.33 373.187H356.094C356.507 373.187 356.903 372.967 357.195 372.575C357.487 372.184 357.651 371.653 357.651 371.1C357.651 370.546 357.487 370.015 357.195 369.624C356.903 369.233 356.507 369.013 356.094 369.013H344.33C343.917 369.013 343.521 369.233 343.229 369.624C342.937 370.015 342.773 370.546 342.773 371.1C342.773 371.653 342.937 372.184 343.229 372.575C343.521 372.967 343.917 373.187 344.33 373.187Z" fill="#FAFAFA"/>
</g>
<path d="M223.015 472.241H240.417C240.83 472.241 241.226 472.021 241.518 471.63C241.81 471.238 241.974 470.707 241.974 470.154C241.974 469.6 241.81 469.07 241.518 468.678C241.226 468.287 240.83 468.067 240.417 468.067H223.015C222.602 468.067 222.206 468.287 221.914 468.678C221.622 469.07 221.458 469.6 221.458 470.154C221.458 470.707 221.622 471.238 221.914 471.63C222.206 472.021 222.602 472.241 223.015 472.241Z" fill="#7671FF"/>
<path d="M222.392 481.2H244.964C245.377 481.2 245.773 480.98 246.065 480.588C246.357 480.197 246.521 479.666 246.521 479.113C246.521 478.559 246.357 478.028 246.065 477.637C245.773 477.246 245.377 477.026 244.964 477.026H222.392C221.979 477.026 221.583 477.246 221.291 477.637C220.999 478.028 220.835 478.559 220.835 479.113C220.835 479.666 220.999 480.197 221.291 480.588C221.583 480.98 221.979 481.2 222.392 481.2Z" fill="#7671FF"/>
<path d="M222.392 490.427H233.678C234.091 490.427 234.487 490.207 234.779 489.816C235.071 489.424 235.235 488.893 235.235 488.34C235.235 487.786 235.071 487.256 234.779 486.864C234.487 486.473 234.091 486.253 233.678 486.253H222.392C221.979 486.253 221.583 486.473 221.291 486.864C220.999 487.256 220.835 487.786 220.835 488.34C220.835 488.893 220.999 489.424 221.291 489.816C221.583 490.207 221.979 490.427 222.392 490.427Z" fill="#7671FF"/>
<g opacity="0.1">
<path d="M223.015 472.241H240.417C240.83 472.241 241.226 472.021 241.517 471.63C241.809 471.238 241.973 470.707 241.973 470.154C241.973 469.601 241.809 469.07 241.517 468.678C241.226 468.287 240.83 468.067 240.417 468.067H223.015C222.602 468.067 222.206 468.287 221.914 468.678C221.622 469.07 221.458 469.601 221.458 470.154C221.458 470.707 221.622 471.238 221.914 471.63C222.206 472.021 222.602 472.241 223.015 472.241Z" fill="#FAFAFA"/>
<path d="M222.392 481.2H244.964C245.377 481.2 245.773 480.98 246.065 480.588C246.357 480.197 246.521 479.666 246.521 479.113C246.521 478.559 246.357 478.028 246.065 477.637C245.773 477.246 245.377 477.026 244.964 477.026H222.392C221.979 477.026 221.583 477.246 221.291 477.637C220.999 478.028 220.835 478.559 220.835 479.113C220.835 479.666 220.999 480.197 221.291 480.588C221.583 480.98 221.979 481.2 222.392 481.2Z" fill="#FAFAFA"/>
<path d="M222.392 490.427H233.678C234.091 490.427 234.487 490.207 234.779 489.816C235.071 489.424 235.235 488.893 235.235 488.34C235.235 487.786 235.071 487.256 234.779 486.864C234.487 486.473 234.091 486.253 233.678 486.253H222.392C221.979 486.253 221.583 486.473 221.291 486.864C220.999 487.256 220.835 487.786 220.835 488.34C220.835 488.893 220.999 489.424 221.291 489.816C221.583 490.207 221.979 490.427 222.392 490.427Z" fill="#FAFAFA"/>
</g>
<path d="M100.288 238.192L105.547 237.879L103.168 251.295C101.291 249.573 99.58 247.545 98.0749 245.258C97.6408 244.574 97.4254 243.688 97.4754 242.792C97.5253 241.896 97.8366 241.063 98.3417 240.473L100.288 238.192Z" fill="#E4897B"/>
<path d="M111.652 245.109L109.294 256.021L103.167 251.266L105.547 237.879L111.652 245.109Z" fill="#E4897B"/>
<path d="M110.615 180.331L99.8525 181.667L124.536 539.044L135.298 537.708L110.615 180.331Z" fill="#7671FF"/>
<path opacity="0.3" d="M110.615 180.331L99.8525 181.667L124.536 539.044L135.298 537.708L110.615 180.331Z" fill="black"/>
<path d="M132.144 177.652L121.382 178.987L146.065 536.365L156.828 535.029L132.144 177.652Z" fill="#7671FF"/>
<path opacity="0.3" d="M132.144 177.652L121.382 178.987L146.065 536.365L156.828 535.029L132.144 177.652Z" fill="black"/>
<path d="M121.385 178.991L110.623 180.327L135.307 537.704L146.069 536.369L121.385 178.991Z" fill="#7671FF"/>
<path opacity="0.1" d="M121.385 178.991L110.623 180.327L135.307 537.704L146.069 536.369L121.385 178.991Z" fill="black"/>
<path d="M119.113 154L109.428 155.207L99.854 181.667L132.145 177.657L119.113 154Z" fill="#7671FF"/>
<g opacity="0.8">
<path d="M119.113 154L109.428 155.207L99.854 181.667L132.145 177.657L119.113 154Z" fill="#FAFAFA"/>
</g>
<path d="M113.531 143.864L109.428 155.207L119.113 154L113.531 143.864Z" fill="#263238"/>
<path d="M194.904 164.062C196.016 165.553 196.939 166.969 197.895 168.534C198.852 170.099 199.764 171.515 200.675 173.006C202.51 175.987 204.223 179.133 205.89 182.337C209.329 188.854 212.23 195.851 214.542 203.207C214.819 204.161 215.075 205.159 215.342 206.188L215.742 207.679C215.963 208.571 216.119 209.489 216.209 210.421C216.451 213.388 216.157 216.389 215.353 219.172C214.153 223.279 212.471 227.104 210.372 230.501C206.659 236.592 202.385 242.027 197.651 246.674L193.459 240.712C196.758 235.183 199.775 229.361 202.488 223.286C203.676 220.691 204.59 217.886 205.201 214.953C205.37 214.233 205.389 213.465 205.257 212.732L204.879 211.629C204.623 210.898 204.4 210.138 204.122 209.423C201.769 203.3 199.015 197.468 195.894 191.997C194.337 189.15 192.691 186.377 191.024 183.604C190.19 182.233 189.344 180.862 188.477 179.52L185.942 175.6L194.904 164.062Z" fill="#E4897B"/>
<path d="M186.731 245.258L191.468 257.824L196.105 252.473L192.302 243.544L186.731 245.258Z" fill="#E4897B"/>
<path d="M151.049 171.426C148.165 178.79 145.17 186.069 142.064 193.264C140.541 196.886 138.939 200.449 137.383 204.041L134.992 209.408L134.392 210.749C134.091 211.39 133.758 212.151 133.458 212.657C133.157 213.164 132.857 213.775 132.568 214.238C132.279 214.7 131.967 215.221 131.678 215.654C129.432 218.934 127.041 222.03 124.517 224.926C122.082 227.713 119.647 230.426 117.134 233.005C112.163 238.207 107.06 243.052 101.767 247.673L97.9526 241.233L111.129 223.837C113.287 220.856 115.466 218.054 117.523 215.102C119.544 212.325 121.449 209.398 123.227 206.337C123.442 205.979 123.632 205.636 123.795 205.308C123.984 204.951 124.117 204.653 124.25 204.354C124.365 204.115 124.469 203.866 124.562 203.609L125.073 202.223L127.13 196.603C128.543 192.891 129.921 189.15 131.356 185.468C134.195 178.044 137.16 170.705 140.252 163.451L151.049 171.426Z" fill="#E4897B"/>
<path d="M182.261 121.071C182.117 121.936 182.35 122.756 182.762 122.905C183.173 123.054 183.629 122.458 183.773 121.593C183.918 120.729 183.673 119.909 183.262 119.76C182.851 119.61 182.361 120.207 182.261 121.071Z" fill="#263238"/>
<path d="M182.284 122.741C182.632 125.648 183.268 128.481 184.174 131.163C183.662 131.435 183.112 131.553 182.563 131.509C182.013 131.465 181.478 131.261 180.994 130.91L182.284 122.741Z" fill="#DE5753"/>
<path d="M183.963 115.824C183.884 115.824 183.806 115.793 183.74 115.735C183.33 115.398 182.864 115.201 182.383 115.159C181.903 115.118 181.422 115.233 180.983 115.496C180.887 115.546 180.78 115.545 180.685 115.492C180.589 115.439 180.513 115.339 180.471 115.213C180.434 115.084 180.435 114.941 180.474 114.813C180.514 114.686 180.588 114.583 180.682 114.527C181.245 114.204 181.857 114.067 182.467 114.13C183.076 114.192 183.666 114.451 184.185 114.885C184.227 114.923 184.264 114.971 184.292 115.028C184.32 115.084 184.339 115.148 184.348 115.214C184.357 115.281 184.357 115.35 184.346 115.416C184.335 115.482 184.314 115.545 184.285 115.601C184.249 115.67 184.201 115.727 184.145 115.766C184.088 115.805 184.026 115.825 183.963 115.824Z" fill="#263238"/>
<path d="M159.767 124.366C161.168 132.385 162.758 147.054 158.732 152.405C158.732 152.405 160.601 160.529 171.709 160.529C183.941 160.529 177.269 152.405 177.269 152.405C170.541 150.273 170.519 143.64 171.498 137.424L159.767 124.366Z" fill="#E4897B"/>
<path d="M157.22 155.193C156.264 152.629 155.219 149.677 157.22 148.753C159.377 147.739 171.353 146.711 175.545 148.604C176.662 149.004 177.619 149.972 178.212 151.302C178.806 152.633 178.99 154.22 178.725 155.729L157.22 155.193Z" fill="#7671FF"/>
<path opacity="0.6" d="M157.22 155.193C156.264 152.629 155.219 149.677 157.22 148.753C159.377 147.739 171.353 146.711 175.545 148.604C176.662 149.004 177.619 149.972 178.212 151.302C178.806 152.633 178.99 154.22 178.725 155.729L157.22 155.193Z" fill="#FAFAFA"/>
<path d="M141.219 529.184C140.501 529.179 139.786 529.074 139.084 528.871C139.048 528.862 139.015 528.839 138.989 528.805C138.963 528.77 138.946 528.725 138.939 528.677C138.932 528.627 138.935 528.575 138.949 528.528C138.963 528.48 138.987 528.439 139.017 528.409C139.106 528.319 141.241 526.262 142.487 526.62C142.621 526.652 142.749 526.723 142.86 526.828C142.972 526.934 143.064 527.072 143.131 527.231C143.232 527.409 143.286 527.627 143.286 527.85C143.286 528.073 143.232 528.29 143.131 528.468C142.865 529.05 142.053 529.184 141.219 529.184ZM139.629 528.498C140.852 528.767 142.52 528.767 142.853 528.155C142.853 528.155 142.987 527.917 142.798 527.485C142.757 527.39 142.701 527.308 142.634 527.246C142.566 527.184 142.489 527.144 142.409 527.127C141.399 527.214 140.431 527.702 139.629 528.528V528.498Z" fill="#FAFAFA"/>
<path d="M139.128 528.916H139.028C138.999 528.893 138.976 528.861 138.96 528.821C138.944 528.781 138.937 528.737 138.939 528.692C138.939 528.558 139.039 525.398 139.962 524.354C140.073 524.221 140.204 524.122 140.346 524.062C140.488 524.003 140.638 523.986 140.785 524.011C140.935 524.011 141.08 524.081 141.196 524.209C141.312 524.337 141.391 524.515 141.419 524.712C141.597 525.934 140.04 528.319 139.195 528.931L139.128 528.916ZM140.652 524.444C140.492 524.446 140.338 524.526 140.218 524.667C139.673 525.669 139.37 526.871 139.351 528.111C140.151 527.261 141.141 525.457 141.041 524.742C141.041 524.667 141.041 524.488 140.741 524.444H140.652Z" fill="#FAFAFA"/>
<path d="M190.279 529.184C189.436 529.184 188.594 529.079 187.766 528.871C187.727 528.862 187.691 528.838 187.663 528.8C187.635 528.763 187.616 528.714 187.61 528.662C187.604 528.611 187.609 528.558 187.625 528.51C187.64 528.463 187.666 528.422 187.699 528.394C188.11 528.081 191.735 525.293 192.614 527.216C192.702 527.384 192.749 527.585 192.749 527.79C192.749 527.996 192.702 528.196 192.614 528.364C192.369 529.02 191.324 529.184 190.279 529.184ZM188.377 528.483C189.912 528.781 191.98 528.737 192.336 528.066C192.336 528.066 192.447 527.857 192.28 527.485C191.791 526.426 189.589 527.693 188.377 528.513V528.483Z" fill="#FAFAFA"/>
<path d="M187.799 528.916C187.763 528.929 187.724 528.929 187.688 528.916C187.66 528.889 187.638 528.853 187.624 528.811C187.611 528.769 187.606 528.723 187.61 528.677C187.61 528.558 187.743 525.606 188.722 524.459C188.87 524.277 189.047 524.142 189.24 524.064C189.432 523.987 189.635 523.969 189.834 524.011C190.379 524.086 190.534 524.459 190.568 524.757C190.723 526.024 188.866 528.334 187.888 528.931L187.799 528.916ZM189.667 524.444C189.42 524.44 189.181 524.562 189 524.787C188.415 525.746 188.076 526.933 188.032 528.17C189.011 527.365 190.256 525.532 190.179 524.772C190.179 524.697 190.179 524.503 189.778 524.444H189.667Z" fill="#FAFAFA"/>
<path d="M178.814 528.647H186.987L187.065 503.291H178.903L178.814 528.647Z" fill="#E4897B"/>
<path d="M129.766 528.647H137.939L141.319 503.291H133.146L129.766 528.647Z" fill="#E4897B"/>
<path d="M138.483 527.38H129.31C129.147 527.377 128.99 527.452 128.865 527.592C128.741 527.731 128.658 527.926 128.631 528.14L127.297 537.874C127.27 538.116 127.282 538.363 127.332 538.597C127.383 538.832 127.471 539.049 127.591 539.233C127.71 539.417 127.858 539.565 128.025 539.665C128.191 539.765 128.371 539.815 128.554 539.812C131.756 539.738 133.302 539.484 137.338 539.484C139.818 539.484 144.944 539.842 148.38 539.842C151.816 539.842 152.116 535.37 150.704 534.878C144.354 533.03 141.908 530.481 139.829 528.066C139.458 527.625 138.979 527.381 138.483 527.38Z" fill="#263238"/>
<path d="M186.898 527.38H178.003C177.84 527.377 177.683 527.452 177.558 527.592C177.434 527.731 177.351 527.926 177.324 528.14L175.99 537.874C175.959 538.114 175.968 538.36 176.016 538.595C176.063 538.83 176.149 539.047 176.267 539.232C176.385 539.417 176.532 539.565 176.697 539.666C176.863 539.766 177.043 539.816 177.224 539.812C180.438 539.738 185.075 539.484 189.122 539.484C193.859 539.484 197.951 539.842 203.5 539.842C206.836 539.842 207.647 535.37 206.235 534.878C199.786 533 194.56 532.806 188.911 528.245C188.313 527.71 187.616 527.411 186.898 527.38Z" fill="#263238"/>
<path d="M143.154 154.879C135.559 157.235 127.586 185.214 127.586 185.214L143.365 199.346C146.988 191.982 150.163 184.241 152.861 176.196C157.031 163.391 150.904 152.48 143.154 154.879Z" fill="#7671FF"/>
<path opacity="0.7" d="M143.154 154.879C135.559 157.235 127.586 185.214 127.586 185.214L143.365 199.346C146.988 191.982 150.163 184.241 152.861 176.196C157.031 163.391 150.904 152.48 143.154 154.879Z" fill="black"/>
<path d="M149.147 172.723L142.62 198.675L143.365 199.346C143.365 199.346 146.345 193.383 149.514 185.438L149.147 172.723Z" fill="#7671FF"/>
<path opacity="0.8" d="M149.147 172.723L142.62 198.675L143.365 199.346C143.365 199.346 146.345 193.383 149.514 185.438L149.147 172.723Z" fill="black"/>
<path d="M194.115 203.803C194.048 216.026 193.503 231.231 192.147 250.103H148.447C147.88 241.159 150.837 197.244 143.154 154.879C147.96 153.63 152.822 152.804 157.709 152.405C163.894 151.928 170.094 151.928 176.279 152.405C180.544 152.961 184.771 153.958 188.922 155.386C188.922 155.386 192.658 160.812 193.792 186.258C194.015 191.341 194.137 197.125 194.115 203.803Z" fill="#7671FF"/>
<path opacity="0.7" d="M194.115 203.803C194.048 216.026 193.503 231.231 192.147 250.103H148.447C147.88 241.159 150.837 197.244 143.154 154.879C147.96 153.63 152.822 152.804 157.709 152.405C163.894 151.928 170.094 151.928 176.279 152.405C180.544 152.961 184.771 153.958 188.922 155.386C188.922 155.386 192.658 160.812 193.792 186.258C194.015 191.341 194.137 197.125 194.115 203.803Z" fill="black"/>
<path d="M194.115 203.803C191.469 197.333 186.665 184.35 187.343 176.971L193.793 186.332C194.015 191.341 194.137 197.125 194.115 203.803Z" fill="#7671FF"/>
<path opacity="0.8" d="M194.115 203.803C191.469 197.333 186.665 184.35 187.343 176.971L193.793 186.332C194.015 191.341 194.137 197.125 194.115 203.803Z" fill="black"/>
<path d="M180.36 165.344C179.671 175.779 197.317 200.881 197.317 200.881L211.462 185.438C207.757 177.058 203.318 169.301 198.24 162.333C189.967 151.615 181.138 153.657 180.36 165.344Z" fill="#7671FF"/>
<path opacity="0.7" d="M180.36 165.344C179.671 175.779 197.317 200.881 197.317 200.881L211.462 185.438C207.757 177.058 203.318 169.301 198.24 162.333C189.967 151.615 181.138 153.657 180.36 165.344Z" fill="black"/>
<path d="M187.065 503.306L187.021 516.364H178.859L178.892 503.306H187.065Z" fill="#CE6F64"/>
<path d="M133.146 503.306H141.319L139.573 516.364H131.4L133.146 503.306Z" fill="#CE6F64"/>
<path d="M161.234 112.023C160.045 122.815 158.944 129.017 162.035 135.874C163.018 138.094 164.435 139.912 166.133 141.13C167.831 142.348 169.746 142.919 171.669 142.783C173.593 142.646 175.451 141.806 177.044 140.355C178.637 138.903 179.903 136.894 180.705 134.547C183.896 125.603 185.319 109.444 178.303 102.617C176.822 101.084 175.067 100.102 173.213 99.7671C171.359 99.4327 169.472 99.7586 167.742 100.712C166.012 101.665 164.5 103.213 163.358 105.198C162.215 107.184 161.483 109.538 161.234 112.023Z" fill="#E4897B"/>
<path d="M185.419 106.91C183.013 108.672 180.365 109.762 177.636 110.115C175.601 122.592 170.186 136.947 161.423 132.818C158.087 131.327 154.752 120.49 154.407 110.875C153.829 111.814 153.439 113.037 153.139 113.544C152.639 109.271 153 104.896 154.184 100.873C156.609 91.6606 158.221 97.7723 160.856 92.1824C162.557 88.4855 165.582 86.5775 170.864 86.339C169.385 87.3675 169.107 89.0222 171.297 88.7837C173.488 88.5452 182.84 87.8595 188.288 92.7935C184.608 93.9115 186.854 101.737 191.769 97.5637C189.978 101.454 187.755 105.151 185.419 106.91Z" fill="#263238"/>
<path d="M171.342 118.701C171.373 121.446 172.059 124.105 173.299 126.289C174.956 129.151 176.857 127.779 177.313 124.559C177.713 121.697 177.313 116.748 175.245 115.019C173.177 113.29 171.331 115.422 171.342 118.701Z" fill="#E4897B"/>
<path d="M161.379 93.3451C160.269 93.2507 159.193 92.7939 158.246 92.0144C157.298 91.235 156.507 90.1565 155.941 88.8731C155.941 88.8731 155.797 97.6084 161.379 93.3451Z" fill="#1E2A4C"/>
<path d="M176.635 250.103C176.635 250.103 169.785 333.788 165.593 365.137C161.012 399.422 143.354 513.845 143.354 513.845H128.342C128.342 513.845 138.995 402.24 141.219 368.193C143.609 331.299 148.491 250.043 148.491 250.043L176.635 250.103Z" fill="#7671FF"/>
<path opacity="0.6" d="M176.635 250.103C176.635 250.103 169.785 333.788 165.593 365.137C161.012 399.422 143.354 513.845 143.354 513.845H128.342C128.342 513.845 138.995 402.24 141.219 368.193C143.609 331.299 148.491 250.043 148.491 250.043L176.635 250.103Z" fill="#FAFAFA"/>
<path d="M145.478 506.451C145.544 506.451 144.155 514.158 144.155 514.158H127.331L127.442 507.286L145.478 506.451Z" fill="#7671FF"/>
<path opacity="0.1" d="M145.478 506.451C145.544 506.451 144.155 514.158 144.155 514.158H127.331L127.442 507.286L145.478 506.451Z" fill="#FAFAFA"/>
<path d="M171.642 279.916C161.001 282.733 163.68 336.322 165.76 363.885C168.295 344.402 171.742 306.912 174.066 280.304C173.314 279.812 172.46 279.675 171.642 279.916Z" fill="#7671FF"/>
<path opacity="0.4" d="M171.642 279.916C161.001 282.733 163.68 336.322 165.76 363.885C168.295 344.402 171.742 306.912 174.066 280.304C173.314 279.812 172.46 279.675 171.642 279.916Z" fill="#FAFAFA"/>
<path d="M192.135 250.103C192.135 250.103 195.627 331.97 195.694 365.375C195.772 400.108 190.001 513.845 190.001 513.845H176.157C176.157 513.845 172.432 402.135 170.83 368.029C169.096 330.837 163.414 250.103 163.414 250.103H192.135Z" fill="#7671FF"/>
<path opacity="0.6" d="M192.135 250.103C192.135 250.103 195.627 331.97 195.694 365.375C195.772 400.108 190.001 513.845 190.001 513.845H176.157C176.157 513.845 172.432 402.135 170.83 368.029C169.096 330.837 163.414 250.103 163.414 250.103H192.135Z" fill="#FAFAFA"/>
<path d="M195.483 239.579L191.602 239.996C191.286 240.032 190.98 240.161 190.705 240.375C190.431 240.59 190.196 240.883 190.017 241.234C189.839 241.585 189.72 241.986 189.671 242.406C189.622 242.826 189.644 243.255 189.734 243.663L191.335 250.893C191.47 251.48 191.709 252.015 192.032 252.452C192.354 252.889 192.751 253.215 193.188 253.403C193.624 253.59 194.088 253.633 194.54 253.528C194.992 253.424 195.419 253.174 195.783 252.801C197.788 250.3 199.225 247.091 199.931 243.544L195.483 239.579Z" fill="#E4897B"/>
<path d="M186.72 500.519C186.683 500.511 186.649 500.486 186.624 500.448C186.6 500.409 186.587 500.36 186.587 500.31C188.121 468.842 191.68 392.684 191.613 365.375C191.613 337.426 189.078 274.907 188.277 256.408C188.276 256.384 188.278 256.359 188.284 256.335C188.29 256.312 188.299 256.29 188.312 256.272C188.325 256.254 188.34 256.239 188.357 256.229C188.374 256.219 188.392 256.214 188.411 256.214C188.447 256.214 188.482 256.233 188.509 256.266C188.536 256.299 188.552 256.345 188.555 256.393C189.311 274.892 191.791 337.411 191.891 365.375C191.958 392.699 188.399 468.857 186.865 500.34C186.865 500.365 186.861 500.389 186.854 500.412C186.846 500.435 186.836 500.455 186.822 500.472C186.808 500.489 186.792 500.501 186.775 500.51C186.757 500.518 186.739 500.521 186.72 500.519Z" fill="#7671FF"/>
<path opacity="0.3" d="M186.72 500.519C186.683 500.511 186.649 500.486 186.624 500.448C186.6 500.409 186.587 500.36 186.587 500.31C188.121 468.842 191.68 392.684 191.613 365.375C191.613 337.426 189.078 274.907 188.277 256.408C188.276 256.384 188.278 256.359 188.284 256.335C188.29 256.312 188.299 256.29 188.312 256.272C188.325 256.254 188.34 256.239 188.357 256.229C188.374 256.219 188.392 256.214 188.411 256.214C188.447 256.214 188.482 256.233 188.509 256.266C188.536 256.299 188.552 256.345 188.555 256.393C189.311 274.892 191.791 337.411 191.891 365.375C191.958 392.699 188.399 468.857 186.865 500.34C186.865 500.365 186.861 500.389 186.854 500.412C186.846 500.435 186.836 500.455 186.822 500.472C186.808 500.489 186.792 500.501 186.775 500.51C186.757 500.518 186.739 500.521 186.72 500.519Z" fill="#FAFAFA"/>
<path d="M192.447 506.451C192.514 506.451 191.891 514.158 191.891 514.158H175.056L174.4 507.286L192.447 506.451Z" fill="#7671FF"/>
<path opacity="0.1" d="M192.447 506.451C192.514 506.451 191.891 514.158 191.891 514.158H175.056L174.4 507.286L192.447 506.451Z" fill="#FAFAFA"/>
</svg>
